<?xml version="1.0" standalone="no"?>
<!DOCTYPE svg PUBLIC "-//W3C//DTD SVG 1.1//EN" "http://www.w3.org/Graphics/SVG/1.1/DTD/svg11.dtd">
<svg version="1.1" xmlns="http://www.w3.org/2000/svg" viewBox="0 0 1234.225128289055 813.6857534170636" width="1234.225128289055" height="813.6857534170636"><!-- svg-source:excalidraw --><metadata></metadata><defs><style class="style-fonts">
      @font-face { font-family: Virgil; src: url(https://esm.sh/@excalidraw/excalidraw/dist/prod/fonts/Virgil/Virgil-Regular.woff2); }
      @font-face { font-family: Excalifont; src: url(https://esm.sh/@excalidraw/excalidraw/dist/prod/fonts/Excalifont/Excalifont-Regular-a88b72a24fb54c9f94e3b5fdaa7481c9.woff2); }</style></defs><rect x="0" y="0" width="1234.225128289055" height="813.6857534170636" fill="#ffffff"></rect><g stroke-linecap="round" transform="translate(551.8175791307649 15.174207943129005) rotate(0 63.941917866069446 38.26851694988882)"><path d="M0 0 C46.42 0.55, 93.4 -2.01, 127.88 0 M0 0 C47.98 -0.08, 95.37 0.97, 127.88 0 M127.88 0 C126.06 25.89, 126.15 49.57, 127.88 76.54 M127.88 0 C128.13 20.15, 128.24 39.79, 127.88 76.54 M127.88 76.54 C78.38 76.78, 27.68 77, 0 76.54 M127.88 76.54 C78.55 75.83, 29.32 76.55, 0 76.54 M0 76.54 C1.7 53.47, 0.23 29.45, 0 0 M0 76.54 C-1.24 47.2, 0.41 15.6, 0 0" stroke="#000000" stroke-width="1" fill="none"></path></g><g stroke-linecap="round"><g transform="translate(550.7419813798697 25.890742335373176) rotate(0 64.13771542089813 0.38105917520822175)"><path d="M0.96 -0.73 C22.18 -0.49, 106.9 0.78, 128.27 0.91 M0.01 1.5 C20.93 1.46, 105.59 -0.71, 127.02 -0.74" stroke="#000000" stroke-width="1" fill="none"></path></g></g><mask></mask><g stroke-linecap="round" transform="translate(556.3056145997198 19.445777743137825) rotate(0 2.5009765625 2.5009765625)"><path d="M5 2.5 C5 2.65, 4.99 2.79, 4.96 2.94 C4.94 3.08, 4.9 3.22, 4.85 3.36 C4.8 3.49, 4.74 3.63, 4.67 3.75 C4.59 3.88, 4.51 4, 4.42 4.11 C4.32 4.22, 4.22 4.32, 4.11 4.42 C4 4.51, 3.88 4.59, 3.75 4.67 C3.63 4.74, 3.49 4.8, 3.36 4.85 C3.22 4.9, 3.08 4.94, 2.94 4.96 C2.79 4.99, 2.65 5, 2.5 5 C2.36 5, 2.21 4.99, 2.07 4.96 C1.92 4.94, 1.78 4.9, 1.65 4.85 C1.51 4.8, 1.38 4.74, 1.25 4.67 C1.13 4.59, 1 4.51, 0.89 4.42 C0.78 4.32, 0.68 4.22, 0.59 4.11 C0.49 4, 0.41 3.88, 0.34 3.75 C0.26 3.63, 0.2 3.49, 0.15 3.36 C0.1 3.22, 0.06 3.08, 0.04 2.94 C0.01 2.79, 0 2.65, 0 2.5 C0 2.36, 0.01 2.21, 0.04 2.07 C0.06 1.92, 0.1 1.78, 0.15 1.65 C0.2 1.51, 0.26 1.38, 0.34 1.25 C0.41 1.13, 0.49 1, 0.59 0.89 C0.68 0.78, 0.78 0.68, 0.89 0.59 C1 0.49, 1.13 0.41, 1.25 0.34 C1.38 0.26, 1.51 0.2, 1.65 0.15 C1.78 0.1, 1.92 0.06, 2.07 0.04 C2.21 0.01, 2.36 0, 2.5 0 C2.65 0, 2.79 0.01, 2.94 0.04 C3.08 0.06, 3.22 0.1, 3.36 0.15 C3.49 0.2, 3.63 0.26, 3.75 0.34 C3.88 0.41, 4 0.49, 4.11 0.59 C4.22 0.68, 4.32 0.78, 4.42 0.89 C4.51 1, 4.59 1.13, 4.67 1.25 C4.74 1.38, 4.8 1.51, 4.85 1.65 C4.9 1.78, 4.94 1.92, 4.96 2.07 C4.99 2.21, 5 2.43, 5 2.5 C5.01 2.57, 5.01 2.43, 5 2.5" stroke="none" stroke-width="0" fill="#fa5252"></path><path d="M5 2.5 C5 2.65, 4.99 2.79, 4.96 2.94 C4.94 3.08, 4.9 3.22, 4.85 3.36 C4.8 3.49, 4.74 3.63, 4.67 3.75 C4.59 3.88, 4.51 4, 4.42 4.11 C4.32 4.22, 4.22 4.32, 4.11 4.42 C4 4.51, 3.88 4.59, 3.75 4.67 C3.63 4.74, 3.49 4.8, 3.36 4.85 C3.22 4.9, 3.08 4.94, 2.94 4.96 C2.79 4.99, 2.65 5, 2.5 5 C2.36 5, 2.21 4.99, 2.07 4.96 C1.92 4.94, 1.78 4.9, 1.65 4.85 C1.51 4.8, 1.38 4.74, 1.25 4.67 C1.13 4.59, 1 4.51, 0.89 4.42 C0.78 4.32, 0.68 4.22, 0.59 4.11 C0.49 4, 0.41 3.88, 0.34 3.75 C0.26 3.63, 0.2 3.49, 0.15 3.36 C0.1 3.22, 0.06 3.08, 0.04 2.94 C0.01 2.79, 0 2.65, 0 2.5 C0 2.36, 0.01 2.21, 0.04 2.07 C0.06 1.92, 0.1 1.78, 0.15 1.65 C0.2 1.51, 0.26 1.38, 0.34 1.25 C0.41 1.13, 0.49 1, 0.59 0.89 C0.68 0.78, 0.78 0.68, 0.89 0.59 C1 0.49, 1.13 0.41, 1.25 0.34 C1.38 0.26, 1.51 0.2, 1.65 0.15 C1.78 0.1, 1.92 0.06, 2.07 0.04 C2.21 0.01, 2.36 0, 2.5 0 C2.65 0, 2.79 0.01, 2.94 0.04 C3.08 0.06, 3.22 0.1, 3.36 0.15 C3.49 0.2, 3.63 0.26, 3.75 0.34 C3.88 0.41, 4 0.49, 4.11 0.59 C4.22 0.68, 4.32 0.78, 4.42 0.89 C4.51 1, 4.59 1.13, 4.67 1.25 C4.74 1.38, 4.8 1.51, 4.85 1.65 C4.9 1.78, 4.94 1.92, 4.96 2.07 C4.99 2.21, 5 2.43, 5 2.5 C5.01 2.57, 5.01 2.43, 5 2.5" stroke="#000000" stroke-width="1" fill="none"></path></g><g stroke-linecap="round" transform="translate(566.5683099122198 19.445777743137825) rotate(0 2.5009765625 2.5009765625)"><path d="M5 2.5 C5 2.65, 4.99 2.79, 4.96 2.94 C4.94 3.08, 4.9 3.22, 4.85 3.36 C4.8 3.49, 4.74 3.63, 4.67 3.75 C4.59 3.88, 4.51 4, 4.42 4.11 C4.32 4.22, 4.22 4.32, 4.11 4.42 C4 4.51, 3.88 4.59, 3.75 4.67 C3.63 4.74, 3.49 4.8, 3.36 4.85 C3.22 4.9, 3.08 4.94, 2.94 4.96 C2.79 4.99, 2.65 5, 2.5 5 C2.36 5, 2.21 4.99, 2.07 4.96 C1.92 4.94, 1.78 4.9, 1.65 4.85 C1.51 4.8, 1.38 4.74, 1.25 4.67 C1.13 4.59, 1 4.51, 0.89 4.42 C0.78 4.32, 0.68 4.22, 0.59 4.11 C0.49 4, 0.41 3.88, 0.34 3.75 C0.26 3.63, 0.2 3.49, 0.15 3.36 C0.1 3.22, 0.06 3.08, 0.04 2.94 C0.01 2.79, 0 2.65, 0 2.5 C0 2.36, 0.01 2.21, 0.04 2.07 C0.06 1.92, 0.1 1.78, 0.15 1.65 C0.2 1.51, 0.26 1.38, 0.34 1.25 C0.41 1.13, 0.49 1, 0.59 0.89 C0.68 0.78, 0.78 0.68, 0.89 0.59 C1 0.49, 1.13 0.41, 1.25 0.34 C1.38 0.26, 1.51 0.2, 1.65 0.15 C1.78 0.1, 1.92 0.06, 2.07 0.04 C2.21 0.01, 2.36 0, 2.5 0 C2.65 0, 2.79 0.01, 2.94 0.04 C3.08 0.06, 3.22 0.1, 3.36 0.15 C3.49 0.2, 3.63 0.26, 3.75 0.34 C3.88 0.41, 4 0.49, 4.11 0.59 C4.22 0.68, 4.32 0.78, 4.42 0.89 C4.51 1, 4.59 1.13, 4.67 1.25 C4.74 1.38, 4.8 1.51, 4.85 1.65 C4.9 1.78, 4.94 1.92, 4.96 2.07 C4.99 2.21, 5 2.43, 5 2.5 C5.01 2.57, 5.01 2.43, 5 2.5" stroke="none" stroke-width="0" fill="#fab005"></path><path d="M5 2.5 C5 2.65, 4.99 2.79, 4.96 2.94 C4.94 3.08, 4.9 3.22, 4.85 3.36 C4.8 3.49, 4.74 3.63, 4.67 3.75 C4.59 3.88, 4.51 4, 4.42 4.11 C4.32 4.22, 4.22 4.32, 4.11 4.42 C4 4.51, 3.88 4.59, 3.75 4.67 C3.63 4.74, 3.49 4.8, 3.36 4.85 C3.22 4.9, 3.08 4.94, 2.94 4.96 C2.79 4.99, 2.65 5, 2.5 5 C2.36 5, 2.21 4.99, 2.07 4.96 C1.92 4.94, 1.78 4.9, 1.65 4.85 C1.51 4.8, 1.38 4.74, 1.25 4.67 C1.13 4.59, 1 4.51, 0.89 4.42 C0.78 4.32, 0.68 4.22, 0.59 4.11 C0.49 4, 0.41 3.88, 0.34 3.75 C0.26 3.63, 0.2 3.49, 0.15 3.36 C0.1 3.22, 0.06 3.08, 0.04 2.94 C0.01 2.79, 0 2.65, 0 2.5 C0 2.36, 0.01 2.21, 0.04 2.07 C0.06 1.92, 0.1 1.78, 0.15 1.65 C0.2 1.51, 0.26 1.38, 0.34 1.25 C0.41 1.13, 0.49 1, 0.59 0.89 C0.68 0.78, 0.78 0.68, 0.89 0.59 C1 0.49, 1.13 0.41, 1.25 0.34 C1.38 0.26, 1.51 0.2, 1.65 0.15 C1.78 0.1, 1.92 0.06, 2.07 0.04 C2.21 0.01, 2.36 0, 2.5 0 C2.65 0, 2.79 0.01, 2.94 0.04 C3.08 0.06, 3.22 0.1, 3.36 0.15 C3.49 0.2, 3.63 0.26, 3.75 0.34 C3.88 0.41, 4 0.49, 4.11 0.59 C4.22 0.68, 4.32 0.78, 4.42 0.89 C4.51 1, 4.59 1.13, 4.67 1.25 C4.74 1.38, 4.8 1.51, 4.85 1.65 C4.9 1.78, 4.94 1.92, 4.96 2.07 C4.99 2.21, 5 2.43, 5 2.5 C5.01 2.57, 5.01 2.43, 5 2.5" stroke="#000000" stroke-width="1" fill="none"></path></g><g stroke-linecap="round" transform="translate(577.281726378566 19.896498896984014) rotate(0 2.5009765625 2.5009765625)"><path d="M5 2.5 C5 2.65, 4.99 2.79, 4.96 2.94 C4.94 3.08, 4.9 3.22, 4.85 3.36 C4.8 3.49, 4.74 3.63, 4.67 3.75 C4.59 3.88, 4.51 4, 4.42 4.11 C4.32 4.22, 4.22 4.32, 4.11 4.42 C4 4.51, 3.88 4.59, 3.75 4.67 C3.63 4.74, 3.49 4.8, 3.36 4.85 C3.22 4.9, 3.08 4.94, 2.94 4.96 C2.79 4.99, 2.65 5, 2.5 5 C2.36 5, 2.21 4.99, 2.07 4.96 C1.92 4.94, 1.78 4.9, 1.65 4.85 C1.51 4.8, 1.38 4.74, 1.25 4.67 C1.13 4.59, 1 4.51, 0.89 4.42 C0.78 4.32, 0.68 4.22, 0.59 4.11 C0.49 4, 0.41 3.88, 0.34 3.75 C0.26 3.63, 0.2 3.49, 0.15 3.36 C0.1 3.22, 0.06 3.08, 0.04 2.94 C0.01 2.79, 0 2.65, 0 2.5 C0 2.36, 0.01 2.21, 0.04 2.07 C0.06 1.92, 0.1 1.78, 0.15 1.65 C0.2 1.51, 0.26 1.38, 0.34 1.25 C0.41 1.13, 0.49 1, 0.59 0.89 C0.68 0.78, 0.78 0.68, 0.89 0.59 C1 0.49, 1.13 0.41, 1.25 0.34 C1.38 0.26, 1.51 0.2, 1.65 0.15 C1.78 0.1, 1.92 0.06, 2.07 0.04 C2.21 0.01, 2.36 0, 2.5 0 C2.65 0, 2.79 0.01, 2.94 0.04 C3.08 0.06, 3.22 0.1, 3.36 0.15 C3.49 0.2, 3.63 0.26, 3.75 0.34 C3.88 0.41, 4 0.49, 4.11 0.59 C4.22 0.68, 4.32 0.78, 4.42 0.89 C4.51 1, 4.59 1.13, 4.67 1.25 C4.74 1.38, 4.8 1.51, 4.85 1.65 C4.9 1.78, 4.94 1.92, 4.96 2.07 C4.99 2.21, 5 2.43, 5 2.5 C5.01 2.57, 5.01 2.43, 5 2.5" stroke="none" stroke-width="0" fill="#40c057"></path><path d="M5 2.5 C5 2.65, 4.99 2.79, 4.96 2.94 C4.94 3.08, 4.9 3.22, 4.85 3.36 C4.8 3.49, 4.74 3.63, 4.67 3.75 C4.59 3.88, 4.51 4, 4.42 4.11 C4.32 4.22, 4.22 4.32, 4.11 4.42 C4 4.51, 3.88 4.59, 3.75 4.67 C3.63 4.74, 3.49 4.8, 3.36 4.85 C3.22 4.9, 3.08 4.94, 2.94 4.96 C2.79 4.99, 2.65 5, 2.5 5 C2.36 5, 2.21 4.99, 2.07 4.96 C1.92 4.94, 1.78 4.9, 1.65 4.85 C1.51 4.8, 1.38 4.74, 1.25 4.67 C1.13 4.59, 1 4.51, 0.89 4.42 C0.78 4.32, 0.68 4.22, 0.59 4.11 C0.49 4, 0.41 3.88, 0.34 3.75 C0.26 3.63, 0.2 3.49, 0.15 3.36 C0.1 3.22, 0.06 3.08, 0.04 2.94 C0.01 2.79, 0 2.65, 0 2.5 C0 2.36, 0.01 2.21, 0.04 2.07 C0.06 1.92, 0.1 1.78, 0.15 1.65 C0.2 1.51, 0.26 1.38, 0.34 1.25 C0.41 1.13, 0.49 1, 0.59 0.89 C0.68 0.78, 0.78 0.68, 0.89 0.59 C1 0.49, 1.13 0.41, 1.25 0.34 C1.38 0.26, 1.51 0.2, 1.65 0.15 C1.78 0.1, 1.92 0.06, 2.07 0.04 C2.21 0.01, 2.36 0, 2.5 0 C2.65 0, 2.79 0.01, 2.94 0.04 C3.08 0.06, 3.22 0.1, 3.36 0.15 C3.49 0.2, 3.63 0.26, 3.75 0.34 C3.88 0.41, 4 0.49, 4.11 0.59 C4.22 0.68, 4.32 0.78, 4.42 0.89 C4.51 1, 4.59 1.13, 4.67 1.25 C4.74 1.38, 4.8 1.51, 4.85 1.65 C4.9 1.78, 4.94 1.92, 4.96 2.07 C4.99 2.21, 5 2.43, 5 2.5 C5.01 2.57, 5.01 2.43, 5 2.5" stroke="#000000" stroke-width="1" fill="none"></path></g><g stroke-opacity="0.9" fill-opacity="0.9" stroke-linecap="round" transform="translate(593.3087873681932 35.948867774999854) rotate(0 21.360101269687846 21.36010126968786)"><path d="M16.91 0.88 C21.15 -0.36, 27.54 0.22, 31.53 2.28 C35.51 4.34, 39.07 8.88, 40.82 13.22 C42.56 17.55, 43.35 23.98, 42.01 28.3 C40.67 32.61, 36.7 36.74, 32.78 39.11 C28.87 41.49, 22.99 43.08, 18.53 42.54 C14.06 42.01, 9.03 39.37, 6.02 35.9 C3 32.43, 0.75 26.39, 0.44 21.7 C0.14 17.01, 1.38 11.33, 4.19 7.77 C7.01 4.21, 14.98 1.58, 17.32 0.33 C19.66 -0.93, 18.08 -0.12, 18.23 0.23 M25.99 0.27 C30.41 0.82, 35.06 4.89, 37.85 8.55 C40.65 12.2, 42.93 17.76, 42.76 22.22 C42.59 26.67, 39.68 31.87, 36.82 35.28 C33.95 38.68, 29.99 41.8, 25.56 42.66 C21.13 43.52, 14.22 42.82, 10.24 40.43 C6.27 38.05, 3.14 32.77, 1.7 28.36 C0.27 23.95, 0.05 18.35, 1.64 13.97 C3.23 9.59, 7.41 4.27, 11.24 2.07 C15.08 -0.13, 22.43 0.96, 24.66 0.77 C26.88 0.58, 24.64 0.65, 24.57 0.94" stroke="none" stroke-width="0" fill="#04aaf7"></path><path d="M21.66 0.5 C26 0.48, 31.81 2.95, 35.25 5.87 C38.7 8.78, 41.67 13.46, 42.33 17.98 C42.99 22.5, 41.59 28.98, 39.19 33 C36.8 37.01, 32.31 40.64, 27.95 42.08 C23.59 43.53, 17.3 43.52, 13.01 41.68 C8.73 39.83, 4.26 35.1, 2.22 31.04 C0.17 26.98, -0.28 21.66, 0.76 17.31 C1.8 12.97, 4.69 7.88, 8.46 4.95 C12.23 2.02, 20.82 0.47, 23.37 -0.27 C25.91 -1, 23.87 0.14, 23.72 0.55 M22.41 0.49 C26.79 0.49, 32.7 2.45, 36.06 5.61 C39.41 8.76, 41.95 14.9, 42.55 19.4 C43.16 23.91, 42.27 28.79, 39.68 32.63 C37.09 36.47, 31.36 41.09, 27.03 42.43 C22.69 43.77, 17.79 42.44, 13.67 40.68 C9.55 38.91, 4.5 35.86, 2.31 31.85 C0.11 27.84, -0.45 21.24, 0.49 16.61 C1.42 11.98, 4.16 6.87, 7.9 4.08 C11.63 1.28, 20.56 0.43, 22.91 -0.15 C25.25 -0.74, 21.99 0.07, 21.96 0.57" stroke="#000000" stroke-width="1" fill="none"></path></g><g stroke-linecap="round"><g transform="translate(620.3869514301688 52.17321983945746) rotate(0 -3.464089655359544 6.480451691366923)" fill-rule="evenodd"><path d="M0 0 C-0.31 -0.07, -0.57 0.63, -1.83 -0.41 C-3.09 -1.46, -5.98 -5.62, -7.57 -6.27 C-9.16 -6.93, -10.52 -5.79, -11.36 -4.35 C-12.2 -2.91, -12.63 0.53, -12.61 2.37 C-12.6 4.22, -10.47 5.65, -11.27 6.74 C-12.07 7.83, -16.44 7.74, -17.42 8.89 C-18.41 10.04, -18.04 12.9, -17.2 13.64 C-16.36 14.39, -13.8 14.04, -12.38 13.35 C-10.96 12.66, -10.16 8.72, -8.7 9.48 C-7.24 10.23, -5 16.42, -3.62 17.87 C-2.24 19.32, -0.39 20.35, -0.42 18.17 C-0.44 15.99, -4.08 7.1, -3.78 4.8 C-3.48 2.5, 0.23 4.17, 1.39 4.35 C2.54 4.53, 1.85 5.61, 3.16 5.87 C4.47 6.12, 7.96 6.74, 9.24 5.87 C10.51 5, 11.64 1.43, 10.8 0.63 C9.97 -0.16, 5.11 2.18, 4.22 1.11 C3.34 0.04, 5.78 -4.68, 5.49 -5.76 C5.19 -6.84, 3.43 -6.15, 2.47 -5.35 C1.52 -4.54, 0.17 -1.81, -0.24 -0.92 C-0.65 -0.03, -0.04 -0.15, 0 0" stroke="none" stroke-width="0" fill="#40c057" fill-rule="evenodd"></path><path d="M0 0 C-0.31 -0.07, -0.57 0.63, -1.83 -0.41 C-3.09 -1.46, -5.98 -5.62, -7.57 -6.27 C-9.16 -6.93, -10.52 -5.79, -11.36 -4.35 C-12.2 -2.91, -12.63 0.53, -12.61 2.37 C-12.6 4.22, -10.47 5.65, -11.27 6.74 C-12.07 7.83, -16.44 7.74, -17.42 8.89 C-18.41 10.04, -18.04 12.9, -17.2 13.64 C-16.36 14.39, -13.8 14.04, -12.38 13.35 C-10.96 12.66, -10.16 8.72, -8.7 9.48 C-7.24 10.23, -5 16.42, -3.62 17.87 C-2.24 19.32, -0.39 20.35, -0.42 18.17 C-0.44 15.99, -4.08 7.1, -3.78 4.8 C-3.48 2.5, 0.23 4.17, 1.39 4.35 C2.54 4.53, 1.85 5.61, 3.16 5.87 C4.47 6.12, 7.96 6.74, 9.24 5.87 C10.51 5, 11.64 1.43, 10.8 0.63 C9.97 -0.16, 5.11 2.18, 4.22 1.11 C3.34 0.04, 5.78 -4.68, 5.49 -5.76 C5.19 -6.84, 3.43 -6.15, 2.47 -5.35 C1.52 -4.54, 0.17 -1.81, -0.24 -0.92 C-0.65 -0.03, -0.04 -0.15, 0 0 M0 0 C-0.31 -0.07, -0.57 0.63, -1.83 -0.41 C-3.09 -1.46, -5.98 -5.62, -7.57 -6.27 C-9.16 -6.93, -10.52 -5.79, -11.36 -4.35 C-12.2 -2.91, -12.63 0.53, -12.61 2.37 C-12.6 4.22, -10.47 5.65, -11.27 6.74 C-12.07 7.83, -16.44 7.74, -17.42 8.89 C-18.41 10.04, -18.04 12.9, -17.2 13.64 C-16.36 14.39, -13.8 14.04, -12.38 13.35 C-10.96 12.66, -10.16 8.72, -8.7 9.48 C-7.24 10.23, -5 16.42, -3.62 17.87 C-2.24 19.32, -0.39 20.35, -0.42 18.17 C-0.44 15.99, -4.08 7.1, -3.78 4.8 C-3.48 2.5, 0.23 4.17, 1.39 4.35 C2.54 4.53, 1.85 5.61, 3.16 5.87 C4.47 6.12, 7.96 6.74, 9.24 5.87 C10.51 5, 11.64 1.43, 10.8 0.63 C9.97 -0.16, 5.11 2.18, 4.22 1.11 C3.34 0.04, 5.78 -4.68, 5.49 -5.76 C5.19 -6.84, 3.43 -6.15, 2.47 -5.35 C1.52 -4.54, 0.17 -1.81, -0.24 -0.92 C-0.65 -0.03, -0.04 -0.15, 0 0" stroke="#087f5b" stroke-width="1" fill="none"></path></g></g><mask></mask><g stroke-linecap="round"><g stroke-opacity="0.9" fill-opacity="0.9" transform="translate(594.3678498422207 56.91174133818086) rotate(0 21.18063172135072 0.08235685546584648)"><path d="M-0.28 -0.41 C6.82 -0.43, 35.5 -0.42, 42.64 -0.38 M0.58 0.58 C7.65 0.64, 35.5 0.17, 42.48 0.12" stroke="#000000" stroke-width="1" fill="none"></path></g></g><mask></mask><g stroke-linecap="round"><g stroke-opacity="0.9" fill-opacity="0.9" transform="translate(599.4631788719951 41.47721241121471) rotate(0 14.659303301924297 2.6276150615775435)"><path d="M0 0 C0.13 0.38, 0.09 1.58, 0.77 2.28 C1.46 2.97, 2.81 3.68, 4.1 4.19 C5.4 4.7, 6.64 5.13, 8.54 5.34 C10.43 5.55, 12.97 5.55, 15.48 5.45 C17.99 5.34, 21.44 5.28, 23.58 4.71 C25.72 4.14, 27.36 2.86, 28.32 2.03 C29.27 1.2, 29.15 0.12, 29.32 -0.26 M0 0 C0.13 0.38, 0.09 1.58, 0.77 2.28 C1.46 2.97, 2.81 3.68, 4.1 4.19 C5.4 4.7, 6.64 5.13, 8.54 5.34 C10.43 5.55, 12.97 5.55, 15.48 5.45 C17.99 5.34, 21.44 5.28, 23.58 4.71 C25.72 4.14, 27.36 2.86, 28.32 2.03 C29.27 1.2, 29.15 0.12, 29.32 -0.26" stroke="#000000" stroke-width="1" fill="none"></path></g></g><mask></mask><g stroke-opacity="0.9" fill-opacity="0.9" stroke-linecap="round" transform="translate(607.5370947959145 34.56633814540717) rotate(0 7.764217176558077 22.41115194065472)"><path d="M6.39 0.75 C7.92 -0.28, 9.89 1.28, 11.28 3.57 C12.68 5.86, 14.08 9.99, 14.76 14.49 C15.44 18.98, 15.82 25.92, 15.35 30.55 C14.87 35.18, 13.33 40.01, 11.91 42.28 C10.48 44.54, 8.49 45.06, 6.79 44.13 C5.09 43.2, 2.88 40.32, 1.71 36.68 C0.53 33.03, -0.3 27.06, -0.26 22.26 C-0.22 17.47, 0.83 11.6, 1.95 7.92 C3.07 4.24, 5.56 1.4, 6.47 0.18 C7.37 -1.03, 7.34 0.28, 7.39 0.65 M8.94 1.29 C10.54 2.07, 13.52 4.86, 14.6 8.74 C15.69 12.61, 15.67 19.69, 15.46 24.55 C15.25 29.4, 14.57 34.54, 13.34 37.86 C12.11 41.17, 9.64 43.91, 8.08 44.42 C6.51 44.92, 5.33 43.5, 3.97 40.9 C2.6 38.31, 0.36 33.32, -0.12 28.86 C-0.6 24.4, 0.45 18.58, 1.07 14.12 C1.7 9.65, 2.31 4.34, 3.63 2.07 C4.94 -0.2, 7.92 0.66, 8.95 0.5 C9.98 0.35, 9.62 0.69, 9.8 1.12" stroke="#000000" stroke-width="1" fill="none"></path></g><g stroke-linecap="round"><g stroke-opacity="0.9" fill-opacity="0.9" transform="translate(600.979130381621 73.21430446965562) rotate(0 14.659303301924297 -2.7126663098105297)"><path d="M0 0 C0.68 -0.72, 2.68 -3.4, 4.1 -4.32 C5.53 -5.24, 6.64 -5.3, 8.54 -5.52 C10.43 -5.73, 12.97 -5.73, 15.48 -5.63 C17.99 -5.52, 21.44 -5.45, 23.58 -4.86 C25.72 -4.28, 27.36 -2.95, 28.32 -2.1 C29.27 -1.24, 29.15 -0.12, 29.32 0.27 M0 0 C0.68 -0.72, 2.68 -3.4, 4.1 -4.32 C5.53 -5.24, 6.64 -5.3, 8.54 -5.52 C10.43 -5.73, 12.97 -5.73, 15.48 -5.63 C17.99 -5.52, 21.44 -5.45, 23.58 -4.86 C25.72 -4.28, 27.36 -2.95, 28.32 -2.1 C29.27 -1.24, 29.15 -0.12, 29.32 0.27" stroke="#000000" stroke-width="1" fill="none"></path></g></g><mask></mask><g stroke-linecap="round" transform="translate(743.0612371077272 10) rotate(0 35.40822089442776 54.15214451096952)"><path d="M-1.11 1.25 L71.82 -1.59 L72.27 106.96 L1 110.22" stroke="none" stroke-width="0" fill="#ced4da"></path><path d="M0 0 C25.82 -0.22, 55.25 0.58, 70.82 0 M0 0 C16.46 0.03, 35.8 0.71, 70.82 0 M70.82 0 C73.12 23.73, 71.34 47.85, 70.82 108.3 M70.82 0 C71.47 37.86, 71.81 75.02, 70.82 108.3 M70.82 108.3 C53.51 106.15, 36.62 106.98, 0 108.3 M70.82 108.3 C48.75 109.88, 27.49 108.88, 0 108.3 M0 108.3 C1.29 73.52, -1.96 41.04, 0 0 M0 108.3 C0.83 85.42, 0.64 64.31, 0 0" stroke="#000000" stroke-width="1" fill="none"></path></g><g stroke-linecap="round" transform="translate(751.1689411978188 18.257181350396934) rotate(0 27.900581767571623 41.41639447687882)"><path d="M1 -1.59 L57.26 -1.34 L56.8 84.75 L-1.59 81.92" stroke="none" stroke-width="0" fill="#fff"></path><path d="M0 0 C14.78 0.35, 26.01 0.24, 55.8 0 M0 0 C17.4 0.68, 32.09 0.54, 55.8 0 M55.8 0 C56.46 33.33, 57.45 63.92, 55.8 82.83 M55.8 0 C57.34 21.04, 55.77 43.3, 55.8 82.83 M55.8 82.83 C40.98 81.19, 25.87 82.09, 0 82.83 M55.8 82.83 C33.45 83.21, 11.44 83.82, 0 82.83 M0 82.83 C-2.18 64.04, -2.71 47.28, 0 0 M0 82.83 C-0.16 65.85, -0.71 49.81, 0 0" stroke="#000000" stroke-width="1" fill="none"></path></g><g stroke-linecap="round" transform="translate(773.3556109621709 104.63486447298169) rotate(0 5.713912003219434 5.713912003219434)"><path d="M4.74 0.32 C5.86 0.05, 7.1 0.61, 8.21 1.1 C9.33 1.6, 10.92 2.15, 11.44 3.29 C11.96 4.42, 11.84 6.76, 11.33 7.91 C10.82 9.07, 9.54 9.68, 8.39 10.21 C7.24 10.75, 5.64 11.15, 4.43 11.1 C3.21 11.06, 1.87 10.91, 1.1 9.95 C0.33 9, -0.19 6.71, -0.22 5.36 C-0.26 4.02, 0.07 2.82, 0.89 1.87 C1.7 0.93, 3.9 0.05, 4.67 -0.3 C5.44 -0.65, 5.53 -0.29, 5.52 -0.21 M5.9 0.66 C7.15 0.95, 9.19 1.8, 10.04 2.5 C10.88 3.21, 10.9 3.86, 10.96 4.9 C11.02 5.93, 10.93 7.58, 10.38 8.7 C9.83 9.81, 8.93 11.14, 7.64 11.57 C6.35 12, 3.83 11.9, 2.64 11.28 C1.46 10.65, 0.88 8.98, 0.52 7.83 C0.17 6.68, 0.22 5.56, 0.49 4.38 C0.76 3.21, 1.05 1.56, 2.14 0.79 C3.24 0.01, 6.38 -0.16, 7.08 -0.29 C7.78 -0.41, 6.56 -0.19, 6.35 0.03" stroke="none" stroke-width="0" fill="#fff"></path><path d="M5.75 0.46 C6.98 0.41, 8.78 0.15, 9.76 0.94 C10.73 1.73, 11.4 3.89, 11.62 5.19 C11.83 6.49, 11.74 7.69, 11.07 8.73 C10.41 9.77, 8.8 11.05, 7.61 11.44 C6.43 11.83, 5.14 11.5, 3.95 11.07 C2.77 10.64, 1.14 9.84, 0.52 8.86 C-0.1 7.88, -0.01 6.48, 0.24 5.18 C0.49 3.87, 0.99 1.91, 2.02 1.02 C3.05 0.14, 5.74 0.08, 6.41 -0.15 C7.08 -0.38, 6.12 -0.43, 6.04 -0.36 M5.42 0.66 C6.58 0.47, 8.33 0.54, 9.32 1.29 C10.31 2.04, 11.27 3.82, 11.38 5.16 C11.48 6.5, 10.68 8.41, 9.93 9.32 C9.18 10.22, 8.01 10.41, 6.87 10.57 C5.73 10.74, 4.19 10.79, 3.09 10.33 C1.99 9.86, 0.76 8.85, 0.29 7.78 C-0.19 6.72, -0.06 5.03, 0.24 3.93 C0.54 2.83, 1.24 1.75, 2.09 1.17 C2.95 0.6, 4.69 0.74, 5.37 0.47 C6.04 0.19, 6 -0.42, 6.16 -0.48" stroke="#000000" stroke-width="1" fill="none"></path></g><g stroke-linecap="round" transform="translate(759.4486315977892 28.80133802653711) rotate(0 19.620891367601075 9.944730235592885)"><path d="M0 0 C0 0, 0 0, 0 0 M0 0 C0 0, 0 0, 0 0 M-0.26 6.4 C0.68 5.42, 1.95 3.3, 4.99 0.36 M-0.26 6.4 C0.81 5.08, 2.01 3.49, 4.99 0.36 M0.13 12.04 C1.74 8.91, 5.32 6.99, 10.63 -0.03 M0.13 12.04 C4.34 7.1, 8.75 2.75, 10.63 -0.03 M-0.13 18.44 C3.36 14.5, 7.66 9.31, 15.62 0.33 M-0.13 18.44 C4.19 13.29, 8.31 8.56, 15.62 0.33 M3.55 20.31 C11.13 12.54, 17.84 5.55, 21.26 -0.07 M3.55 20.31 C8.94 14.35, 12.87 9.19, 21.26 -0.07 M8.53 20.67 C14.42 15.52, 18.51 9.71, 26.25 0.29 M8.53 20.67 C15.4 12.58, 22.54 4.77, 26.25 0.29 M14.18 20.27 C17.62 15.32, 21.18 11.74, 31.89 -0.1 M14.18 20.27 C18.24 16.28, 21.59 11.99, 31.89 -0.1 M19.16 20.63 C24.87 14.74, 30 8.31, 36.88 0.26 M19.16 20.63 C26.13 12.42, 33.46 4.9, 36.88 0.26 M24.81 20.24 C28.38 16.05, 31.24 13.73, 39.24 3.64 M24.81 20.24 C29.52 15.35, 34.24 9.54, 39.24 3.64 M29.79 20.6 C32.77 18.58, 34.37 15.36, 39.63 9.28 M29.79 20.6 C32.93 17.17, 35.71 13.9, 39.63 9.28 M35.44 20.2 C36.86 18.86, 38.44 16.87, 39.37 15.68 M35.44 20.2 C36.47 19.03, 37.51 17.8, 39.37 15.68 M-0.04 19.86 C-0.04 19.86, -0.04 19.86, -0.04 19.86 M-0.04 19.86 C-0.04 19.86, -0.04 19.86, -0.04 19.86 M6.36 20.12 C4.27 18.98, 2.63 16.78, 0.32 14.87 M6.36 20.12 C5.26 18.79, 3.81 17.76, 0.32 14.87 M12 19.72 C8.08 16.02, 2.59 12.68, -0.07 9.23 M12 19.72 C8.85 17.06, 5.43 14.04, -0.07 9.23 M18.4 19.99 C11.39 14.71, 4.85 8.3, 0.29 4.24 M18.4 19.99 C11.54 14.54, 4.53 8.12, 0.29 4.24 M24.04 19.59 C19.06 15.46, 11.89 9.32, 0.65 -0.75 M24.04 19.59 C14.94 11.74, 5.29 3.28, 0.65 -0.75 M30.44 19.85 C24.75 13.64, 17.7 8.96, 7.05 -0.49 M30.44 19.85 C25.06 15.49, 19.51 10.15, 7.05 -0.49 M36.84 20.11 C28.07 11.58, 18.39 4.44, 12.69 -0.88 M36.84 20.11 C28.09 11.98, 18.55 4.09, 12.69 -0.88 M39.46 17.1 C33.49 11.14, 28.14 6.57, 19.09 -0.62 M39.46 17.1 C35.69 13.4, 30.78 9.71, 19.09 -0.62 M39.07 11.45 C34.48 7.98, 30.42 2.41, 24.73 -1.01 M39.07 11.45 C36.11 8.93, 32.05 5.62, 24.73 -1.01 M39.43 6.47 C36.76 4.18, 35.29 2.31, 31.13 -0.75 M39.43 6.47 C36.77 4.01, 33.43 1.18, 31.13 -0.75 M39.04 0.82 C38.75 0.52, 38.37 0.11, 37.53 -0.49 M39.04 0.82 C38.69 0.49, 38.28 0.21, 37.53 -0.49" stroke="#fab005" stroke-width="0.5" fill="none"></path><path d="M0 0 C12.07 -0.98, 24.23 0.92, 39.24 0 M0 0 C14.84 0.33, 28.95 -0.12, 39.24 0 M39.24 0 C38.84 7.98, 39.58 15.64, 39.24 19.89 M39.24 0 C39.03 5.72, 38.7 11.54, 39.24 19.89 M39.24 19.89 C30.61 19.39, 20.9 19.71, 0 19.89 M39.24 19.89 C27.46 20.44, 16.12 19.63, 0 19.89 M0 19.89 C-0.87 15.72, -0.86 11.16, 0 0 M0 19.89 C0.3 13.84, 0.42 8.25, 0 0" stroke="#000000" stroke-width="1" fill="none"></path></g><g stroke-linecap="round" transform="translate(759.4486315977892 64.35909807149153) rotate(0 19.620891367601075 9.944730235592885)"><path d="M0 0 C0 0, 0 0, 0 0 M0 0 C0 0, 0 0, 0 0 M-0.26 6.4 C0.88 4.48, 2.07 3.16, 4.99 0.36 M-0.26 6.4 C0.86 4.79, 2.07 3.64, 4.99 0.36 M0.13 12.04 C3.46 9.22, 6.16 5.56, 10.63 -0.03 M0.13 12.04 C2.9 9.43, 4.74 6.72, 10.63 -0.03 M-0.13 18.44 C5.19 12.22, 9.43 8.13, 15.62 0.33 M-0.13 18.44 C3.58 14.09, 8.34 9.05, 15.62 0.33 M3.55 20.31 C8.24 16.4, 11.06 10.33, 21.26 -0.07 M3.55 20.31 C9.5 12.96, 16.45 5.22, 21.26 -0.07 M8.53 20.67 C14.33 14.37, 21.76 5.54, 26.25 0.29 M8.53 20.67 C13.86 14.71, 18.66 8.45, 26.25 0.29 M14.18 20.27 C20.42 12.74, 26.32 4.73, 31.89 -0.1 M14.18 20.27 C18.68 15.11, 22.82 10.3, 31.89 -0.1 M19.16 20.63 C24.69 14.39, 31.97 7.47, 36.88 0.26 M19.16 20.63 C26.06 13.55, 31.82 5.83, 36.88 0.26 M24.81 20.24 C28.27 17.14, 31.14 12.86, 39.24 3.64 M24.81 20.24 C31 13.24, 35.99 6.56, 39.24 3.64 M29.79 20.6 C33.29 16.48, 37.09 11.52, 39.63 9.28 M29.79 20.6 C32.71 17.3, 36.19 13.24, 39.63 9.28 M35.44 20.2 C36.81 18.71, 37.53 17.53, 39.37 15.68 M35.44 20.2 C36.73 18.69, 38.22 17.07, 39.37 15.68 M-0.04 19.86 C-0.04 19.86, -0.04 19.86, -0.04 19.86 M-0.04 19.86 C-0.04 19.86, -0.04 19.86, -0.04 19.86 M6.36 20.12 C4.07 18.03, 1.94 16.23, 0.32 14.87 M6.36 20.12 C4.36 18.24, 2.35 16.66, 0.32 14.87 M12 19.72 C7.61 17.04, 4.54 13.4, -0.07 9.23 M12 19.72 C7.24 15.6, 2.64 11.74, -0.07 9.23 M18.4 19.99 C14.84 17.07, 11.62 13.85, 0.29 4.24 M18.4 19.99 C12.14 14.75, 6.09 9.28, 0.29 4.24 M24.04 19.59 C13.8 11.05, 6.29 4.42, 0.65 -0.75 M24.04 19.59 C16.8 13.3, 9.59 6.76, 0.65 -0.75 M30.44 19.85 C22.19 12.87, 13.14 5, 7.05 -0.49 M30.44 19.85 C25.05 15.18, 20.38 11.06, 7.05 -0.49 M36.84 20.11 C28.15 12.78, 20.3 5.8, 12.69 -0.88 M36.84 20.11 C30.89 14.81, 25.81 10.03, 12.69 -0.88 M39.46 17.1 C34.92 12.5, 28.56 8.28, 19.09 -0.62 M39.46 17.1 C33.29 11.97, 28.03 7.34, 19.09 -0.62 M39.07 11.45 C36.08 7.38, 30.74 4.53, 24.73 -1.01 M39.07 11.45 C34.61 7.98, 30.57 4.72, 24.73 -1.01 M39.43 6.47 C37.77 4.42, 35.79 2.86, 31.13 -0.75 M39.43 6.47 C37.03 4.38, 34.85 2.88, 31.13 -0.75 M39.04 0.82 C38.55 0.26, 37.83 -0.11, 37.53 -0.49 M39.04 0.82 C38.62 0.5, 38.26 0.18, 37.53 -0.49" stroke="#fab005" stroke-width="0.5" fill="none"></path><path d="M0 0 C11.88 1.12, 24.45 -0.66, 39.24 0 M0 0 C13.99 -0.18, 28.08 0.06, 39.24 0 M39.24 0 C39.49 6.95, 39.09 11.36, 39.24 19.89 M39.24 0 C38.73 7.99, 38.94 15.9, 39.24 19.89 M39.24 19.89 C28.75 19.64, 16.38 19.83, 0 19.89 M39.24 19.89 C25.03 19.71, 11.4 19.58, 0 19.89 M0 19.89 C-0.86 15.1, -0.06 9.76, 0 0 M0 19.89 C0.31 12.35, 0.2 5.95, 0 0" stroke="#000000" stroke-width="1" fill="none"></path></g><g stroke-opacity="0.1" fill-opacity="0.1" stroke-linecap="round" transform="translate(373.52457198810134 426.29640450392276) rotate(0 301.4919685456108 148.01943869100455)"><path d="M0 0 L602.98 0 L602.98 296.04 L0 296.04" stroke="none" stroke-width="0" fill="#0091e2"></path><path d="M0 0 C214.14 0, 428.28 0, 602.98 0 M0 0 C206.07 0, 412.14 0, 602.98 0 M602.98 0 C602.98 102.61, 602.98 205.21, 602.98 296.04 M602.98 0 C602.98 103.56, 602.98 207.12, 602.98 296.04 M602.98 296.04 C474.53 296.04, 346.08 296.04, 0 296.04 M602.98 296.04 C382.57 296.04, 162.15 296.04, 0 296.04 M0 296.04 C0 193.5, 0 90.96, 0 0 M0 296.04 C0 178.04, 0 60.04, 0 0" stroke="#0091e2" stroke-width="2" fill="none"></path></g><g transform="translate(427.8032271261135 444.1392367538857) rotate(0 74.44626707319554 12.660929774353008)"><text x="0" y="17.846846609927958" font-family="Virgil, sans-serif, Segoe UI Emoji" font-size="20.257487638964765px" fill="#000000" text-anchor="start" style="white-space: pre;" direction="ltr" dominant-baseline="alphabetic">Private subnet</text></g><g stroke-linecap="round" transform="translate(382.51240830260156 435.2645915941888) rotate(0 20.06724027945546 21.535574934049748)"><path d="M0 0 C0 0, 0 0, 0 0 M0 0 C0 0, 0 0, 0 0 M0.13 12.04 C3.1 8.63, 6.06 5.22, 10.63 -0.03 M0.13 12.04 C3.84 7.78, 7.55 3.51, 10.63 -0.03 M0.27 24.08 C5.46 18.11, 10.65 12.14, 21.26 -0.07 M0.27 24.08 C8.52 14.59, 16.77 5.1, 21.26 -0.07 M-0.26 36.88 C7.07 28.45, 14.39 20.02, 31.89 -0.1 M-0.26 36.88 C11.87 22.93, 23.99 8.98, 31.89 -0.1 M4.47 43.64 C16.51 29.78, 28.56 15.92, 40.55 2.13 M4.47 43.64 C14.93 31.61, 25.38 19.58, 40.55 2.13 M15.1 43.6 C20.83 37.01, 26.56 30.42, 40.69 14.17 M15.1 43.6 C22.91 34.62, 30.71 25.64, 40.69 14.17 M25.73 43.57 C28.79 40.04, 31.85 36.52, 40.82 26.21 M25.73 43.57 C30.86 37.66, 36 31.75, 40.82 26.21 M36.36 43.53 C37.36 42.38, 38.36 41.23, 40.95 38.25 M36.36 43.53 C37.78 41.9, 39.19 40.27, 40.95 38.25 M-0.19 42.9 C-0.19 42.9, -0.19 42.9, -0.19 42.9 M-0.19 42.9 C-0.19 42.9, -0.19 42.9, -0.19 42.9 M11.85 42.77 C8.89 40.2, 5.94 37.63, -0.23 32.27 M11.85 42.77 C8.25 39.64, 4.64 36.51, -0.23 32.27 M24.64 43.29 C16.25 36, 7.86 28.7, -0.26 21.64 M24.64 43.29 C19.53 38.85, 14.42 34.4, -0.26 21.64 M36.68 43.16 C24.76 32.8, 12.84 22.44, -0.3 11.01 M36.68 43.16 C28.42 35.97, 20.15 28.78, -0.3 11.01 M40.42 35.81 C31.62 28.16, 22.82 20.51, -0.33 0.38 M40.42 35.81 C26.39 23.61, 12.37 11.42, -0.33 0.38 M40.39 25.18 C29.88 16.05, 19.38 6.92, 10.95 -0.41 M40.39 25.18 C29.4 15.63, 18.41 6.07, 10.95 -0.41 M40.35 14.55 C35.05 9.94, 29.75 5.33, 22.99 -0.54 M40.35 14.55 C35.4 10.24, 30.45 5.94, 22.99 -0.54 M40.32 3.92 C39.05 2.82, 37.79 1.72, 35.04 -0.67 M40.32 3.92 C38.86 2.65, 37.41 1.39, 35.04 -0.67" stroke="#4c6ef588" stroke-width="1" fill="none"></path><path d="M0 0 C11.68 0, 23.36 0, 40.13 0 M0 0 C11.04 0, 22.08 0, 40.13 0 M40.13 0 C40.13 16.5, 40.13 33, 40.13 43.07 M40.13 0 C40.13 9.77, 40.13 19.53, 40.13 43.07 M40.13 43.07 C24.52 43.07, 8.9 43.07, 0 43.07 M40.13 43.07 C28.43 43.07, 16.73 43.07, 0 43.07 M0 43.07 C0 33.33, 0 23.59, 0 0 M0 43.07 C0 30.11, 0 17.15, 0 0" stroke="#0091e2" stroke-width="2" fill="none"></path></g><g stroke-linecap="round" transform="translate(392.30563761093197 454.1263692772469) rotate(0 10.27401097112488 8.330279165776972)"><path d="M0 0 C5.14 0, 10.28 0, 20.55 0 M0 0 C4.95 0, 9.9 0, 20.55 0 M20.55 0 C20.55 3.77, 20.55 7.53, 20.55 16.66 M20.55 0 C20.55 6.22, 20.55 12.45, 20.55 16.66 M20.55 16.66 C13.9 16.66, 7.24 16.66, 0 16.66 M20.55 16.66 C15.31 16.66, 10.08 16.66, 0 16.66 M0 16.66 C0 10.94, 0 5.22, 0 0 M0 16.66 C0 10.31, 0 3.96, 0 0" stroke="#000000" stroke-width="2" fill="none"></path></g><g stroke-linecap="round"><g transform="translate(396.6856307383839 453.822507445788) rotate(2.134459448127705 6.149630606000471 -5.5100943283256925)"><path d="M0 0 C-0.06 -0.67, -0.56 -2.5, -0.33 -4.01 C-0.11 -5.51, 0.22 -7.85, 1.34 -9.02 C2.45 -10.19, 4.79 -11.02, 6.34 -11.02 C7.9 -11.02, 9.68 -10.02, 10.69 -9.02 C11.69 -8.01, 12.02 -6.46, 12.36 -5.01 C12.69 -3.56, 12.63 -1.11, 12.69 -0.33 M0 0 C-0.06 -0.67, -0.56 -2.5, -0.33 -4.01 C-0.11 -5.51, 0.22 -7.85, 1.34 -9.02 C2.45 -10.19, 4.79 -11.02, 6.34 -11.02 C7.9 -11.02, 9.68 -10.02, 10.69 -9.02 C11.69 -8.01, 12.02 -6.46, 12.36 -5.01 C12.69 -3.56, 12.63 -1.11, 12.69 -0.33" stroke="#000000" stroke-width="2" fill="none"></path></g></g><mask></mask><g stroke-linecap="round" transform="translate(399.85644879305653 458.32910594368093) rotate(0 2.671560886460952 2.671560886460952)"><path d="M5.34 2.67 C5.34 2.83, 5.33 2.98, 5.3 3.14 C5.28 3.29, 5.23 3.44, 5.18 3.59 C5.13 3.73, 5.06 3.87, 4.99 4.01 C4.91 4.14, 4.82 4.27, 4.72 4.39 C4.62 4.51, 4.51 4.62, 4.39 4.72 C4.27 4.82, 4.14 4.91, 4.01 4.99 C3.87 5.06, 3.73 5.13, 3.59 5.18 C3.44 5.23, 3.29 5.28, 3.14 5.3 C2.98 5.33, 2.83 5.34, 2.67 5.34 C2.52 5.34, 2.36 5.33, 2.21 5.3 C2.06 5.28, 1.9 5.23, 1.76 5.18 C1.61 5.13, 1.47 5.06, 1.34 4.99 C1.2 4.91, 1.07 4.82, 0.95 4.72 C0.84 4.62, 0.72 4.51, 0.63 4.39 C0.53 4.27, 0.44 4.14, 0.36 4.01 C0.28 3.87, 0.21 3.73, 0.16 3.59 C0.11 3.44, 0.07 3.29, 0.04 3.14 C0.01 2.98, 0 2.83, 0 2.67 C0 2.52, 0.01 2.36, 0.04 2.21 C0.07 2.06, 0.11 1.9, 0.16 1.76 C0.21 1.61, 0.28 1.47, 0.36 1.34 C0.44 1.2, 0.53 1.07, 0.63 0.95 C0.72 0.84, 0.84 0.72, 0.95 0.63 C1.07 0.53, 1.2 0.44, 1.34 0.36 C1.47 0.28, 1.61 0.21, 1.76 0.16 C1.9 0.11, 2.06 0.07, 2.21 0.04 C2.36 0.01, 2.52 0, 2.67 0 C2.83 0, 2.98 0.01, 3.14 0.04 C3.29 0.07, 3.44 0.11, 3.59 0.16 C3.73 0.21, 3.87 0.28, 4.01 0.36 C4.14 0.44, 4.27 0.53, 4.39 0.63 C4.51 0.72, 4.62 0.84, 4.72 0.95 C4.82 1.07, 4.91 1.2, 4.99 1.34 C5.06 1.47, 5.13 1.61, 5.18 1.76 C5.23 1.9, 5.28 2.06, 5.3 2.21 C5.33 2.36, 5.34 2.59, 5.34 2.67 C5.35 2.75, 5.35 2.59, 5.34 2.67" stroke="#000000" stroke-width="2" fill="none"></path></g><g stroke-linecap="round"><g transform="translate(402.5313306755154 463.84086077001814) rotate(0 0 2.504588331057164)"><path d="M0 0 C0 0.83, 0 4.17, 0 5.01 M0 0 C0 0.83, 0 4.17, 0 5.01" stroke="#000000" stroke-width="2" fill="none"></path></g></g><mask></mask><g stroke-linecap="round" transform="translate(444.49212617981357 503.65576474459544) rotate(0 52.16657121664383 51.16336792401597)"><path d="M1.84 0.29 L103.27 -0.37 L106.06 102.26 L-0.3 101.55" stroke="none" stroke-width="0" fill="#eeeeee"></path><path d="M0 0 C29.55 -1.95, 56.71 0.37, 104.33 0 M0 0 C21.03 0.02, 43.57 -1.28, 104.33 0 M104.33 0 C103.64 34.73, 106.22 68.84, 104.33 102.33 M104.33 0 C105.21 32.84, 104.15 67.39, 104.33 102.33 M104.33 102.33 C63.36 101.01, 21.59 101.87, 0 102.33 M104.33 102.33 C69.44 101.83, 35.67 101.49, 0 102.33 M0 102.33 C0.25 67.34, 1.27 32.15, 0 0 M0 102.33 C-0.55 77.09, -0.08 51.66, 0 0" stroke="#000000" stroke-width="1" fill="none"></path></g><g transform="translate(456.0244810878635 533.0031564625655) rotate(0 40.63421630859375 21.81597620604589)"><text x="40.63421630859375" y="15.044943590984223" font-family="Virgil, sans-serif, Segoe UI Emoji" font-size="16.159982374848795px" fill="#000000" text-anchor="middle" style="white-space: pre;" direction="ltr" dominant-baseline="alphabetic">_Serviço_</text><text x="40.63421630859375" y="36.860919797030085" font-family="Virgil, sans-serif, Segoe UI Emoji" font-size="16.159982374848795px" fill="#000000" text-anchor="middle" style="white-space: pre;" direction="ltr" dominant-baseline="alphabetic">Usuários</text></g><g transform="translate(10 166.59767535827413) rotate(0 114.58830261230469 271.4999999999999)"><text x="0" y="15.946099999999992" font-family="Excalifont, Xiaolai, sans-serif, Segoe UI Emoji" font-size="18.09999999999999px" fill="#1e1e1e" text-anchor="start" style="white-space: pre;" direction="ltr" dominant-baseline="alphabetic">Papéis:</text><text x="0" y="38.57109999999998" font-family="Excalifont, Xiaolai, sans-serif, Segoe UI Emoji" font-size="18.09999999999999px" fill="#1e1e1e" text-anchor="start" style="white-space: pre;" direction="ltr" dominant-baseline="alphabetic">- Gestor</text><text x="0" y="61.19609999999997" font-family="Excalifont, Xiaolai, sans-serif, Segoe UI Emoji" font-size="18.09999999999999px" fill="#1e1e1e" text-anchor="start" style="white-space: pre;" direction="ltr" dominant-baseline="alphabetic">- Participante</text><text x="0" y="83.82109999999996" font-family="Excalifont, Xiaolai, sans-serif, Segoe UI Emoji" font-size="18.09999999999999px" fill="#1e1e1e" text-anchor="start" style="white-space: pre;" direction="ltr" dominant-baseline="alphabetic"></text><text x="0" y="106.44609999999994" font-family="Excalifont, Xiaolai, sans-serif, Segoe UI Emoji" font-size="18.09999999999999px" fill="#1e1e1e" text-anchor="start" style="white-space: pre;" direction="ltr" dominant-baseline="alphabetic">**Serviços:**</text><text x="0" y="129.07109999999994" font-family="Excalifont, Xiaolai, sans-serif, Segoe UI Emoji" font-size="18.09999999999999px" fill="#1e1e1e" text-anchor="start" style="white-space: pre;" direction="ltr" dominant-baseline="alphabetic"></text><text x="0" y="151.69609999999994" font-family="Excalifont, Xiaolai, sans-serif, Segoe UI Emoji" font-size="18.09999999999999px" fill="#1e1e1e" text-anchor="start" style="white-space: pre;" direction="ltr" dominant-baseline="alphabetic">Usuários:</text><text x="0" y="174.32109999999992" font-family="Excalifont, Xiaolai, sans-serif, Segoe UI Emoji" font-size="18.09999999999999px" fill="#1e1e1e" text-anchor="start" style="white-space: pre;" direction="ltr" dominant-baseline="alphabetic">- Autenticação</text><text x="0" y="196.94609999999992" font-family="Excalifont, Xiaolai, sans-serif, Segoe UI Emoji" font-size="18.09999999999999px" fill="#1e1e1e" text-anchor="start" style="white-space: pre;" direction="ltr" dominant-baseline="alphabetic">- Gestão de usuários</text><text x="0" y="219.57109999999992" font-family="Excalifont, Xiaolai, sans-serif, Segoe UI Emoji" font-size="18.09999999999999px" fill="#1e1e1e" text-anchor="start" style="white-space: pre;" direction="ltr" dominant-baseline="alphabetic"></text><text x="0" y="242.1960999999999" font-family="Excalifont, Xiaolai, sans-serif, Segoe UI Emoji" font-size="18.09999999999999px" fill="#1e1e1e" text-anchor="start" style="white-space: pre;" direction="ltr" dominant-baseline="alphabetic">Financeiro:</text><text x="0" y="264.8210999999999" font-family="Excalifont, Xiaolai, sans-serif, Segoe UI Emoji" font-size="18.09999999999999px" fill="#1e1e1e" text-anchor="start" style="white-space: pre;" direction="ltr" dominant-baseline="alphabetic">- Registrar pagamento</text><text x="0" y="287.4460999999999" font-family="Excalifont, Xiaolai, sans-serif, Segoe UI Emoji" font-size="18.09999999999999px" fill="#1e1e1e" text-anchor="start" style="white-space: pre;" direction="ltr" dominant-baseline="alphabetic">- Registrar despesa</text><text x="0" y="310.0710999999999" font-family="Excalifont, Xiaolai, sans-serif, Segoe UI Emoji" font-size="18.09999999999999px" fill="#1e1e1e" text-anchor="start" style="white-space: pre;" direction="ltr" dominant-baseline="alphabetic">- Gerar débito</text><text x="0" y="332.69609999999983" font-family="Excalifont, Xiaolai, sans-serif, Segoe UI Emoji" font-size="18.09999999999999px" fill="#1e1e1e" text-anchor="start" style="white-space: pre;" direction="ltr" dominant-baseline="alphabetic"></text><text x="0" y="355.32109999999983" font-family="Excalifont, Xiaolai, sans-serif, Segoe UI Emoji" font-size="18.09999999999999px" fill="#1e1e1e" text-anchor="start" style="white-space: pre;" direction="ltr" dominant-baseline="alphabetic">Cotas:</text><text x="0" y="377.94609999999983" font-family="Excalifont, Xiaolai, sans-serif, Segoe UI Emoji" font-size="18.09999999999999px" fill="#1e1e1e" text-anchor="start" style="white-space: pre;" direction="ltr" dominant-baseline="alphabetic">- Gestão de cotas</text><text x="0" y="400.57109999999983" font-family="Excalifont, Xiaolai, sans-serif, Segoe UI Emoji" font-size="18.09999999999999px" fill="#1e1e1e" text-anchor="start" style="white-space: pre;" direction="ltr" dominant-baseline="alphabetic">- Gestão de participações</text><text x="0" y="423.19609999999983" font-family="Excalifont, Xiaolai, sans-serif, Segoe UI Emoji" font-size="18.09999999999999px" fill="#1e1e1e" text-anchor="start" style="white-space: pre;" direction="ltr" dominant-baseline="alphabetic">- Geração cobranças</text><text x="0" y="445.8210999999998" font-family="Excalifont, Xiaolai, sans-serif, Segoe UI Emoji" font-size="18.09999999999999px" fill="#1e1e1e" text-anchor="start" style="white-space: pre;" direction="ltr" dominant-baseline="alphabetic"></text><text x="0" y="468.4460999999998" font-family="Excalifont, Xiaolai, sans-serif, Segoe UI Emoji" font-size="18.09999999999999px" fill="#1e1e1e" text-anchor="start" style="white-space: pre;" direction="ltr" dominant-baseline="alphabetic">**Eventos**</text><text x="0" y="491.0710999999998" font-family="Excalifont, Xiaolai, sans-serif, Segoe UI Emoji" font-size="18.09999999999999px" fill="#1e1e1e" text-anchor="start" style="white-space: pre;" direction="ltr" dominant-baseline="alphabetic">- Usuário desativado</text><text x="0" y="513.6960999999998" font-family="Excalifont, Xiaolai, sans-serif, Segoe UI Emoji" font-size="18.09999999999999px" fill="#1e1e1e" text-anchor="start" style="white-space: pre;" direction="ltr" dominant-baseline="alphabetic">- Pendência financeira</text><text x="0" y="536.3210999999998" font-family="Excalifont, Xiaolai, sans-serif, Segoe UI Emoji" font-size="18.09999999999999px" fill="#1e1e1e" text-anchor="start" style="white-space: pre;" direction="ltr" dominant-baseline="alphabetic"></text></g><g stroke-linecap="round" transform="translate(632.8107396188706 501.08103786648155) rotate(0 48.02441435389869 47.10086792401597)"><path d="M1.2 -0.09 L94.81 -1.19 L97.27 94.48 L0.06 95.95" stroke="none" stroke-width="0" fill="#eeeeee"></path><path d="M0 0 C35.28 1.09, 71.62 -0.04, 96.05 0 M0 0 C25.1 0.45, 50.42 -0.52, 96.05 0 M96.05 0 C95.2 25.98, 94.63 52.97, 96.05 94.2 M96.05 0 C96.4 27.74, 95.57 56.22, 96.05 94.2 M96.05 94.2 C74.61 93.79, 50.3 93.12, 0 94.2 M96.05 94.2 C66.4 94.43, 37.51 95.21, 0 94.2 M0 94.2 C0.58 71.39, 0.98 49.01, 0 0 M0 94.2 C0.97 65.05, 0.22 36.9, 0 0" stroke="#000000" stroke-width="1" fill="none"></path></g><g transform="translate(643.426515972281 528.0981729244264) rotate(0 37.40863800048828 20.08373286607099)"><text x="37.40863800048828" y="13.85033725800895" font-family="Virgil, sans-serif, Segoe UI Emoji" font-size="14.876839160052583px" fill="#000000" text-anchor="middle" style="white-space: pre;" direction="ltr" dominant-baseline="alphabetic">_Serviço_</text><text x="37.40863800048828" y="33.93407012407993" font-family="Virgil, sans-serif, Segoe UI Emoji" font-size="14.876839160052583px" fill="#000000" text-anchor="middle" style="white-space: pre;" direction="ltr" dominant-baseline="alphabetic">Financeiro</text></g><g stroke-linecap="round" transform="translate(829.0663978547841 504.1120602649097) rotate(0 48.02441435389869 47.10086792401597)"><path d="M1.7 -0.11 L96.8 -0.53 L97.87 93.86 L1.18 94.6" stroke="none" stroke-width="0" fill="#eeeeee"></path><path d="M0 0 C29.42 0.89, 55.63 1.04, 96.05 0 M0 0 C28.51 0.58, 56.42 0.37, 96.05 0 M96.05 0 C98.8 21.95, 95.08 48.21, 96.05 94.2 M96.05 0 C95.72 30.47, 96.23 61.85, 96.05 94.2 M96.05 94.2 C74.59 93.05, 52.28 94.54, 0 94.2 M96.05 94.2 C60.1 95.51, 24.59 94.9, 0 94.2 M0 94.2 C0.07 68.9, -1.34 45.05, 0 0 M0 94.2 C-1.35 73.47, -0.01 52.16, 0 0" stroke="#000000" stroke-width="1" fill="none"></path></g><g transform="translate(831.42777204755 531.1291953228546) rotate(0 45.66304016113281 20.08373286607099)"><text x="45.66304016113281" y="13.85033725800895" font-family="Virgil, sans-serif, Segoe UI Emoji" font-size="14.876839160052583px" fill="#000000" text-anchor="middle" style="white-space: pre;" direction="ltr" dominant-baseline="alphabetic">_Serviço_</text><text x="45.66304016113281" y="33.93407012407993" font-family="Virgil, sans-serif, Segoe UI Emoji" font-size="14.876839160052583px" fill="#000000" text-anchor="middle" style="white-space: pre;" direction="ltr" dominant-baseline="alphabetic">Participação</text></g><g stroke-linecap="round"><g transform="translate(674.5085663719856 613.3066670025363) rotate(269.83845249062614 16.420018395343902 70.91772294769163)" fill-rule="evenodd"><path d="M-0.42 1.89 L31.89 -1.51 L33.57 128.27 L14.68 141.94 L0.25 126.39 L-1.23 -1.25" stroke="none" stroke-width="0" fill="#eeeeee" fill-rule="evenodd"></path><path d="M0 0 C10.87 0.09, 19.45 0.18, 32.65 -0.13 M0 0 C6.25 -0.61, 13.79 -0.31, 32.65 -0.13 M32.65 -0.13 C30.43 42.69, 31.57 90.98, 32.37 127.99 M32.65 -0.13 C32.84 28.63, 34.43 58.68, 32.37 127.99 M32.37 127.99 C28.75 130.17, 24.7 136.33, 15.7 142.2 M32.37 127.99 C26.59 132.89, 19.97 137.67, 15.7 142.2 M15.7 142.2 C11.27 138.15, 3.13 130.97, 0.51 127.2 M15.7 142.2 C11.14 135.87, 3.64 130.79, 0.51 127.2 M0.51 127.2 C-0.37 92.25, -1.14 55.29, 0 0 M0.51 127.2 C1.14 86.14, 0.29 44.09, 0 0 M0 0 C0 0, 0 0, 0 0 M0 0 C0 0, 0 0, 0 0" stroke="#000000" stroke-width="1" fill="none"></path></g></g><mask></mask><g stroke-linecap="round" transform="translate(624.5434218333916 677.7794634885988) rotate(0 13.283215528359847 8.828963614658392)"><path d="M0.04 0.1 L26.9 -0.22 L26.23 17.91 L-0.18 17.35" stroke="none" stroke-width="0" fill="#868e96"></path><path d="M0 0 C6.16 0.02, 11.37 0.3, 26.57 0 M0 0 C6.81 -0.11, 13.72 -0.12, 26.57 0 M26.57 0 C26.35 6.14, 25.86 11.52, 26.57 17.66 M26.57 0 C26.79 5.89, 26.13 11.28, 26.57 17.66 M26.57 17.66 C16.05 18.55, 6.43 17.88, 0 17.66 M26.57 17.66 C16.51 17.26, 7.24 17.69, 0 17.66 M0 17.66 C-0.52 13.07, 0.58 7.73, 0 0 M0 17.66 C-0.46 11.68, -0.18 6.29, 0 0" stroke="#000000" stroke-width="1" fill="none"></path></g><g stroke-linecap="round"><g transform="translate(638.529248551956 686.4336866354747) rotate(0 -0.32948178691384555 -4.245953455857261)" fill-rule="evenodd"><path d="M0.33 -0.22 L12.27 -8.09 L-13.44 -8.55 L0.57 0.32" stroke="none" stroke-width="0" fill="#ced4da" fill-rule="evenodd"></path><path d="M0 0 C3.03 -2.24, 7.08 -5.36, 12.6 -8.34 M0 0 C3.03 -2.02, 5.71 -4.05, 12.6 -8.34 M12.6 -8.34 C6.52 -7.27, 2.11 -9.14, -13.26 -8.24 M12.6 -8.34 C5.65 -8.48, -0.06 -8.22, -13.26 -8.24 M-13.26 -8.24 C-9.54 -6.06, -6.21 -4.11, 0 0 M-13.26 -8.24 C-9.45 -5.94, -6.37 -3.56, 0 0 M0 0 C0 0, 0 0, 0 0 M0 0 C0 0, 0 0, 0 0" stroke="#000000" stroke-width="1" fill="none"></path></g></g><mask></mask><g stroke-linecap="round"><g transform="translate(680.8278731251793 687.949372638188) rotate(0 16.69059992928061 -0.3092007710296798)"><path d="M0 0 C9.61 -0.82, 19.4 -0.28, 33.38 -0.62" stroke="#000000" stroke-width="1.5" fill="none" stroke-dasharray="1.5 7"></path></g></g><mask></mask><g stroke-linecap="round" transform="translate(656.2998202979157 677.9323835454093) rotate(0 13.283215528359847 8.828963614658392)"><path d="M-0.18 -0.31 L27.13 0.32 L26.45 17.31 L-0.82 18.45" stroke="none" stroke-width="0" fill="#868e96"></path><path d="M0 0 C8 0.21, 17.07 0.56, 26.57 0 M0 0 C6.36 0.02, 14.09 -0.26, 26.57 0 M26.57 0 C26.18 7.57, 26.9 13.19, 26.57 17.66 M26.57 0 C26.4 4.49, 27.07 9.36, 26.57 17.66 M26.57 17.66 C17.48 17.28, 8.39 18.47, 0 17.66 M26.57 17.66 C18.58 17.49, 9.8 18.11, 0 17.66 M0 17.66 C-0.73 12.77, -0.29 9.21, 0 0 M0 17.66 C0.14 10.97, -0.15 4.59, 0 0" stroke="#000000" stroke-width="1" fill="none"></path></g><g stroke-linecap="round"><g transform="translate(670.3069060723682 685.9687612352675) rotate(0 -0.32948178691384555 -4.254193094544519)" fill-rule="evenodd"><path d="M0.57 0.32 L12.48 -8.69 L-14.08 -7.45 L-0.49 -0.28" stroke="none" stroke-width="0" fill="#ced4da" fill-rule="evenodd"></path><path d="M0 0 C2.77 -1.66, 5.8 -4.02, 12.6 -8.34 M0 0 C3.17 -2.11, 5.97 -3.59, 12.6 -8.34 M12.6 -8.34 C7.66 -9.03, 1.59 -7.3, -13.26 -8.24 M12.6 -8.34 C5.19 -8.02, -3.03 -7.94, -13.26 -8.24 M-13.26 -8.24 C-9.58 -4.96, -4.67 -3.23, 0 0 M-13.26 -8.24 C-8.31 -4.89, -3.73 -2.03, 0 0 M0 0 C0 0, 0 0, 0 0 M0 0 C0 0, 0 0, 0 0" stroke="#000000" stroke-width="1" fill="none"></path></g></g><mask></mask><g stroke-linecap="round" transform="translate(713.2880281363293 677.3207033181626) rotate(0 13.283215528359847 8.828963614658392)"><path d="M-0.12 -0.35 L25.74 0.79 L26.08 17.37 L0.82 17.19" stroke="none" stroke-width="0" fill="#868e96"></path><path d="M0 0 C7.9 -0.04, 15.88 -0.99, 26.57 0 M0 0 C8 0.22, 14.58 -0.14, 26.57 0 M26.57 0 C26.22 7.33, 26.64 12.59, 26.57 17.66 M26.57 0 C26.78 5.37, 26.74 9.95, 26.57 17.66 M26.57 17.66 C19.83 17.41, 13.44 18.61, 0 17.66 M26.57 17.66 C19.64 17.91, 13.88 17.36, 0 17.66 M0 17.66 C0.67 13.89, 0.11 10.34, 0 0 M0 17.66 C-0.05 12.61, 0.28 7.96, 0 0" stroke="#000000" stroke-width="1" fill="none"></path></g><g stroke-linecap="round"><g transform="translate(727.831474412877 684.9766073494279) rotate(0 -0.32948178691384555 -4.207142606333605)" fill-rule="evenodd"><path d="M-0.82 0.79 L12.12 -8.63 L-12.44 -8.71 L0.12 -0.21" stroke="none" stroke-width="0" fill="#ced4da" fill-rule="evenodd"></path><path d="M0 0 C3.82 -3.61, 8.68 -5.14, 12.6 -8.34 M0 0 C2.48 -2.09, 5.97 -3.69, 12.6 -8.34 M12.6 -8.34 C6.96 -8.75, 1.08 -7.21, -13.26 -8.24 M12.6 -8.34 C3.36 -8.39, -6.28 -8.52, -13.26 -8.24 M-13.26 -8.24 C-7.7 -4.43, -3.61 -1.9, 0 0 M-13.26 -8.24 C-7.96 -5.5, -3.74 -2.24, 0 0 M0 0 C0 0, 0 0, 0 0 M0 0 C0 0, 0 0, 0 0" stroke="#000000" stroke-width="1" fill="none"></path></g></g><mask></mask><g transform="translate(644.2445659879088 700.6329102502067) rotate(0 46.01580047607422 13.467075815204453)"><text x="46.01580047607422" y="18.57458901326715" font-family="Virgil, sans-serif, Segoe UI Emoji" font-size="19.951223429932476px" fill="#000000" text-anchor="middle" style="white-space: pre;" direction="ltr" dominant-baseline="alphabetic">RabbitMQ</text></g><g stroke-linecap="round"><g transform="translate(869.9347707917614 603.8137961129416) rotate(0 -51.50728575837587 39.53447600103874)"><path d="M0 0 C-17.17 13.18, -85.85 65.89, -103.01 79.07 M0 0 C-17.17 13.18, -85.85 65.89, -103.01 79.07" stroke="#1e1e1e" stroke-width="2" fill="none"></path></g><g transform="translate(869.9347707917614 603.8137961129416) rotate(0 -51.50728575837587 39.53447600103874)"><path d="M-13.43 21.09 C-8.57 13.46, -3.71 5.83, 0 0 M-13.43 21.09 C-10.01 15.72, -6.6 10.36, 0 0" stroke="#1e1e1e" stroke-width="2" fill="none"></path></g><g transform="translate(869.9347707917614 603.8137961129416) rotate(0 -51.50728575837587 39.53447600103874)"><path d="M-23.84 7.52 C-15.22 4.8, -6.59 2.08, 0 0 M-23.84 7.52 C-17.78 5.61, -11.71 3.69, 0 0" stroke="#1e1e1e" stroke-width="2" fill="none"></path></g><g transform="translate(869.9347707917614 603.8137961129416) rotate(0 -51.50728575837587 39.53447600103874)"><path d="M-89.59 57.98 C-94.44 65.61, -99.3 73.24, -103.01 79.07 M-89.59 57.98 C-93 63.35, -96.42 68.71, -103.01 79.07" stroke="#1e1e1e" stroke-width="2" fill="none"></path></g><g transform="translate(869.9347707917614 603.8137961129416) rotate(0 -51.50728575837587 39.53447600103874)"><path d="M-79.17 71.55 C-87.8 74.27, -96.42 76.99, -103.01 79.07 M-79.17 71.55 C-85.24 73.46, -91.3 75.37, -103.01 79.07" stroke="#1e1e1e" stroke-width="2" fill="none"></path></g></g><mask></mask><g stroke-linecap="round"><g transform="translate(681.0003860747292 600.7827737145136) rotate(0 2.2016906685485083 31.88966755437707)"><path d="M0 0 C1.48 21.5, 2.97 43, 4.4 63.78 M0 0 C1.51 21.84, 3.02 43.68, 4.4 63.78" stroke="#1e1e1e" stroke-width="2" fill="none"></path></g><g transform="translate(681.0003860747292 600.7827737145136) rotate(0 2.2016906685485083 31.88966755437707)"><path d="M10.15 22.85 C6.73 15.14, 3.31 7.44, 0 0 M10.15 22.85 C6.67 15.02, 3.2 7.2, 0 0" stroke="#1e1e1e" stroke-width="2" fill="none"></path></g><g transform="translate(681.0003860747292 600.7827737145136) rotate(0 2.2016906685485083 31.88966755437707)"><path d="M-6.91 24.03 C-4.58 15.93, -2.25 7.83, 0 0 M-6.91 24.03 C-4.55 15.8, -2.18 7.57, 0 0" stroke="#1e1e1e" stroke-width="2" fill="none"></path></g><g transform="translate(681.0003860747292 600.7827737145136) rotate(0 2.2016906685485083 31.88966755437707)"><path d="M-5.74 40.93 C-2.32 48.63, 1.1 56.34, 4.4 63.78 M-5.74 40.93 C-2.27 48.76, 1.21 56.58, 4.4 63.78" stroke="#1e1e1e" stroke-width="2" fill="none"></path></g><g transform="translate(681.0003860747292 600.7827737145136) rotate(0 2.2016906685485083 31.88966755437707)"><path d="M11.32 39.75 C8.99 47.85, 6.65 55.95, 4.4 63.78 M11.32 39.75 C8.95 47.98, 6.58 56.21, 4.4 63.78" stroke="#1e1e1e" stroke-width="2" fill="none"></path></g></g><mask></mask><g stroke-opacity="0.1" fill-opacity="0.1" stroke-linecap="round" transform="translate(375.6348321866442 213.65308932330865) rotate(0 297.56955475250743 48.210228164688715)"><path d="M0 0 L595.14 0 L595.14 96.42 L0 96.42" stroke="none" stroke-width="0" fill="#2b8a3e"></path><path d="M0 0 C156.02 0, 312.04 0, 595.14 0 M0 0 C145.68 0, 291.36 0, 595.14 0 M595.14 0 C595.14 38.19, 595.14 76.39, 595.14 96.42 M595.14 0 C595.14 31.1, 595.14 62.21, 595.14 96.42 M595.14 96.42 C459.38 96.42, 323.63 96.42, 0 96.42 M595.14 96.42 C395.39 96.42, 195.65 96.42, 0 96.42 M0 96.42 C0 64.97, 0 33.53, 0 0 M0 96.42 C0 65.05, 0 33.68, 0 0" stroke="#2b8a3e" stroke-width="2" fill="none"></path></g><g transform="translate(433.6756182397901 224.57030381875867) rotate(0 64.5 12.5)"><text x="0" y="17.619999999999997" font-family="Virgil, sans-serif, Segoe UI Emoji" font-size="20px" fill="#000000" text-anchor="start" style="white-space: pre;" direction="ltr" dominant-baseline="alphabetic">Public subnet</text></g><g stroke-linecap="round" transform="translate(397.381301555243 234.43049250686724) rotate(0 10.143420698786997 8.224395161178734)"><path d="M0 0 C5.23 0, 10.45 0, 20.29 0 M0 0 C5.41 0, 10.82 0, 20.29 0 M20.29 0 C20.29 4.22, 20.29 8.44, 20.29 16.45 M20.29 0 C20.29 5.21, 20.29 10.43, 20.29 16.45 M20.29 16.45 C13.41 16.45, 6.54 16.45, 0 16.45 M20.29 16.45 C14.79 16.45, 9.29 16.45, 0 16.45 M0 16.45 C0 12.68, 0 8.92, 0 0 M0 16.45 C0 12.16, 0 7.87, 0 0" stroke="#000000" stroke-width="2" fill="none"></path></g><g stroke-linecap="round"><g transform="translate(401.70562173305984 234.13049298385155) rotate(2.134459448127705 6.071464256181287 -5.440056957238056)"><path d="M0 0 C-0.05 -0.66, -0.55 -2.47, -0.33 -3.96 C-0.11 -5.44, 0.22 -7.75, 1.32 -8.9 C2.42 -10.06, 4.73 -10.88, 6.26 -10.88 C7.8 -10.88, 9.56 -9.89, 10.55 -8.9 C11.54 -7.91, 11.87 -6.37, 12.2 -4.95 C12.53 -3.52, 12.47 -1.1, 12.53 -0.33 M0 0 C-0.05 -0.66, -0.55 -2.47, -0.33 -3.96 C-0.11 -5.44, 0.22 -7.75, 1.32 -8.9 C2.42 -10.06, 4.73 -10.88, 6.26 -10.88 C7.8 -10.88, 9.56 -9.89, 10.55 -8.9 C11.54 -7.91, 11.87 -6.37, 12.2 -4.95 C12.53 -3.52, 12.47 -1.1, 12.53 -0.33" stroke="#000000" stroke-width="2" fill="none"></path></g></g><mask></mask><g stroke-linecap="round" transform="translate(404.83613634689914 238.57980928428444) rotate(0 2.637603373206332 2.6376033732063036)"><path d="M5.28 2.64 C5.28 2.79, 5.26 2.95, 5.24 3.1 C5.21 3.25, 5.17 3.4, 5.12 3.54 C5.06 3.68, 5 3.82, 4.92 3.96 C4.85 4.09, 4.76 4.22, 4.66 4.33 C4.56 4.45, 4.45 4.56, 4.33 4.66 C4.22 4.76, 4.09 4.85, 3.96 4.92 C3.82 5, 3.68 5.06, 3.54 5.12 C3.4 5.17, 3.25 5.21, 3.1 5.24 C2.95 5.26, 2.79 5.28, 2.64 5.28 C2.48 5.28, 2.33 5.26, 2.18 5.24 C2.03 5.21, 1.88 5.17, 1.74 5.12 C1.59 5.06, 1.45 5, 1.32 4.92 C1.19 4.85, 1.06 4.76, 0.94 4.66 C0.83 4.56, 0.72 4.45, 0.62 4.33 C0.52 4.22, 0.43 4.09, 0.35 3.96 C0.28 3.82, 0.21 3.68, 0.16 3.54 C0.11 3.4, 0.07 3.25, 0.04 3.1 C0.01 2.95, 0 2.79, 0 2.64 C0 2.48, 0.01 2.33, 0.04 2.18 C0.07 2.03, 0.11 1.88, 0.16 1.74 C0.21 1.59, 0.28 1.45, 0.35 1.32 C0.43 1.19, 0.52 1.06, 0.62 0.94 C0.72 0.83, 0.83 0.72, 0.94 0.62 C1.06 0.52, 1.19 0.43, 1.32 0.35 C1.45 0.28, 1.59 0.21, 1.74 0.16 C1.88 0.11, 2.03 0.07, 2.18 0.04 C2.33 0.01, 2.48 0, 2.64 0 C2.79 0, 2.95 0.01, 3.1 0.04 C3.25 0.07, 3.4 0.11, 3.54 0.16 C3.68 0.21, 3.82 0.28, 3.96 0.35 C4.09 0.43, 4.22 0.52, 4.33 0.62 C4.45 0.72, 4.56 0.83, 4.66 0.94 C4.76 1.06, 4.85 1.19, 4.92 1.32 C5 1.45, 5.06 1.59, 5.12 1.74 C5.17 1.88, 5.21 2.03, 5.24 2.18 C5.26 2.33, 5.27 2.56, 5.28 2.64 C5.28 2.71, 5.28 2.56, 5.28 2.64" stroke="#000000" stroke-width="2" fill="none"></path></g><g stroke-linecap="round"><g transform="translate(407.4770185037903 244.02150563337747) rotate(0 0 2.47275316238094)"><path d="M0 0 C0 0.82, 0 4.12, 0 4.95 M0 0 C0 0.82, 0 4.12, 0 4.95" stroke="#000000" stroke-width="2" fill="none"></path></g></g><mask></mask><g stroke-linecap="round" transform="translate(387.71255142899986 215.80846195775072) rotate(0 19.81217082503025 21.261841861008094)"><path d="M0 0 C0 0, 0 0, 0 0 M0 0 C0 0, 0 0, 0 0 M0.13 12.04 C3.55 8.11, 6.97 4.17, 10.63 -0.03 M0.13 12.04 C3.76 7.87, 7.39 3.69, 10.63 -0.03 M0.27 24.08 C4.55 19.15, 8.84 14.22, 21.26 -0.07 M0.27 24.08 C4.8 18.86, 9.34 13.64, 21.26 -0.07 M-0.26 36.88 C7.1 28.42, 14.45 19.96, 31.89 -0.1 M-0.26 36.88 C7.61 27.83, 15.47 18.78, 31.89 -0.1 M5.12 42.88 C13.86 32.84, 22.59 22.79, 39.9 2.88 M5.12 42.88 C16.43 29.88, 27.73 16.88, 39.9 2.88 M15.76 42.85 C23.88 33.5, 32 24.16, 39.37 15.68 M15.76 42.85 C23.29 34.18, 30.83 25.51, 39.37 15.68 M26.39 42.81 C31.61 36.81, 36.83 30.8, 39.51 27.72 M26.39 42.81 C30.45 38.14, 34.51 33.46, 39.51 27.72 M37.02 42.78 C37.59 42.12, 38.16 41.46, 39.64 39.76 M37.02 42.78 C37.94 41.71, 38.87 40.64, 39.64 39.76 M0.08 42.59 C0.08 42.59, 0.08 42.59, 0.08 42.59 M0.08 42.59 C0.08 42.59, 0.08 42.59, 0.08 42.59 M12.12 42.46 C9.29 40, 6.47 37.54, 0.04 31.96 M12.12 42.46 C8.22 39.07, 4.31 35.67, 0.04 31.96 M24.16 42.32 C17.25 36.32, 10.35 30.32, 0.01 21.33 M24.16 42.32 C19.04 37.87, 13.91 33.42, 0.01 21.33 M36.95 42.85 C25.47 32.87, 13.99 22.89, -0.03 10.7 M36.95 42.85 C26.25 33.54, 15.55 24.24, -0.03 10.7 M39.94 34.84 C30.35 26.51, 20.76 18.17, -0.06 0.07 M39.94 34.84 C28.71 25.08, 17.48 15.32, -0.06 0.07 M39.9 24.21 C34.11 19.18, 28.32 14.14, 11.23 -0.72 M39.9 24.21 C31.16 16.61, 22.42 9.01, 11.23 -0.72 M39.87 13.58 C34.59 8.99, 29.3 4.39, 23.27 -0.85 M39.87 13.58 C34.44 8.86, 29.02 4.15, 23.27 -0.85 M39.84 2.95 C38.03 1.38, 36.22 -0.19, 35.31 -0.99 M39.84 2.95 C38.43 1.73, 37.02 0.51, 35.31 -0.99" stroke="#40c05788" stroke-width="1" fill="none"></path><path d="M0 0 C14.99 0, 29.97 0, 39.62 0 M0 0 C14.3 0, 28.59 0, 39.62 0 M39.62 0 C39.62 14.81, 39.62 29.62, 39.62 42.52 M39.62 0 C39.62 11.96, 39.62 23.91, 39.62 42.52 M39.62 42.52 C30.5 42.52, 21.38 42.52, 0 42.52 M39.62 42.52 C25.63 42.52, 11.64 42.52, 0 42.52 M0 42.52 C0 33, 0 23.48, 0 0 M0 42.52 C0 28.62, 0 14.73, 0 0" stroke="#2b8a3e" stroke-width="2" fill="none"></path></g><g stroke-linecap="round" transform="translate(484.00327148183624 259.8693812576979) rotate(0 192.74050912514042 17.74235119851116)"><path d="M1.98 -0.7 L385.91 -0.15 L385.49 35.45 L1.22 35.2" stroke="none" stroke-width="0" fill="#eeeeee"></path><path d="M0 0 C119.35 2.78, 239.11 1.13, 385.48 0 M0 0 C88.37 -2.39, 176.64 -1.91, 385.48 0 M385.48 0 C383.73 13.59, 386.04 24.07, 385.48 35.48 M385.48 0 C384.98 9.27, 385.11 17.3, 385.48 35.48 M385.48 35.48 C282.7 35.75, 179.69 36.31, 0 35.48 M385.48 35.48 C269.33 35.71, 152.73 36.3, 0 35.48 M0 35.48 C-1.08 21.71, -1.4 10.3, 0 0 M0 35.48 C0.06 23.9, 0.68 12.6, 0 0" stroke="#000000" stroke-width="1" fill="none"></path></g><g transform="translate(611.4038376748478 265.1117324562091) rotate(0 65.3399429321289 12.5)"><text x="65.3399429321289" y="17.619999999999997" font-family="Excalifont, Xiaolai, sans-serif, Segoe UI Emoji" font-size="20px" fill="#1e1e1e" text-anchor="middle" style="white-space: pre;" direction="ltr" dominant-baseline="alphabetic">API Gateway</text></g><g mask="url(#mask-yC9NZUW7eQx8UOu67cpMg)" stroke-linecap="round"><g transform="translate(617.7677596374011 97.21124184290665) rotate(0 28.509547407203456 78.57906970739562)"><path d="M0 0 C15.42 42.5, 30.84 85, 57.02 157.16 M0 0 C19.22 52.99, 38.45 105.98, 57.02 157.16" stroke="#1e1e1e" stroke-width="2" fill="none"></path></g><g transform="translate(617.7677596374011 97.21124184290665) rotate(0 28.509547407203456 78.57906970739562)"><path d="M40.97 137.99 C45.31 143.17, 49.65 148.36, 57.02 157.16 M40.97 137.99 C46.38 144.45, 51.79 150.92, 57.02 157.16" stroke="#1e1e1e" stroke-width="2" fill="none"></path></g><g transform="translate(617.7677596374011 97.21124184290665) rotate(0 28.509547407203456 78.57906970739562)"><path d="M57.04 132.16 C57.04 138.92, 57.03 145.68, 57.02 157.16 M57.04 132.16 C57.04 140.59, 57.03 149.02, 57.02 157.16" stroke="#1e1e1e" stroke-width="2" fill="none"></path></g></g><mask id="mask-yC9NZUW7eQx8UOu67cpMg"><rect x="0" y="0" fill="#fff" width="774.786854451808" height="354.36938125769785"></rect><rect x="627.5973296276126" y="163.29031155030228" fill="#000" width="37.359954833984375" height="25" opacity="1"></rect></mask><g transform="translate(627.5973296276125 163.2903115503023) rotate(0 18.67997741699213 12.499999999999986)"><text x="18.679977416992188" y="17.619999999999997" font-family="Excalifont, Xiaolai, sans-serif, Segoe UI Emoji" font-size="20px" fill="#1e1e1e" text-anchor="middle" style="white-space: pre;" direction="ltr" dominant-baseline="alphabetic">/api</text></g><g mask="url(#mask-gJuPGPrPhREJgwvuKaJPS)" stroke-linecap="round"><g transform="translate(775.5593951536017 120.99916732165167) rotate(0 -47.432484297118606 66.68510696802308)"><path d="M0 0 C-26.3 36.97, -52.6 73.95, -94.86 133.37 M0 0 C-21.29 29.94, -42.59 59.87, -94.86 133.37" stroke="#1e1e1e" stroke-width="2" fill="none"></path></g><g transform="translate(775.5593951536017 120.99916732165167) rotate(0 -47.432484297118606 66.68510696802308)"><path d="M-88.22 109.27 C-90.06 115.95, -91.9 122.63, -94.86 133.37 M-88.22 109.27 C-89.71 114.68, -91.2 120.09, -94.86 133.37" stroke="#1e1e1e" stroke-width="2" fill="none"></path></g><g transform="translate(775.5593951536017 120.99916732165167) rotate(0 -47.432484297118606 66.68510696802308)"><path d="M-74.28 119.18 C-79.99 123.12, -85.69 127.05, -94.86 133.37 M-74.28 119.18 C-78.9 122.37, -83.52 125.55, -94.86 133.37" stroke="#1e1e1e" stroke-width="2" fill="none"></path></g></g><mask id="mask-gJuPGPrPhREJgwvuKaJPS"><rect x="0" y="0" fill="#fff" width="970.4243637478389" height="354.3693812576978"></rect><rect x="709.4469334394909" y="175.18427428967473" fill="#000" width="37.359954833984375" height="25" opacity="1"></rect></mask><g transform="translate(709.446933439491 175.18427428967476) rotate(0 18.67997741699213 12.500000000000014)"><text x="18.679977416992188" y="17.619999999999997" font-family="Excalifont, Xiaolai, sans-serif, Segoe UI Emoji" font-size="20px" fill="#1e1e1e" text-anchor="middle" style="white-space: pre;" direction="ltr" dominant-baseline="alphabetic">/api</text></g><g mask="url(#mask-ypOzMwPqrUKtdZ1PdS0Ud)" stroke-linecap="round"><g transform="translate(688.6197464711726 300.85408365472017) rotate(0 92.29098547706093 98.87898830509474)"><path d="M0 0 C25.33 11.77, 121.19 37.64, 151.96 70.6 C182.72 103.56, 179.14 176.57, 184.58 197.76 M0 0 C25.33 11.77, 121.19 37.64, 151.96 70.6 C182.72 103.56, 179.14 176.57, 184.58 197.76" stroke="#1e1e1e" stroke-width="2" fill="none"></path></g><g transform="translate(688.6197464711726 300.85408365472017) rotate(0 92.29098547706093 98.87898830509474)"><path d="M173.32 175.44 C175.94 180.62, 178.55 185.8, 184.58 197.76 M173.32 175.44 C177.75 184.22, 182.19 193.01, 184.58 197.76" stroke="#1e1e1e" stroke-width="2" fill="none"></path></g><g transform="translate(688.6197464711726 300.85408365472017) rotate(0 92.29098547706093 98.87898830509474)"><path d="M190.3 173.42 C188.97 179.07, 187.65 184.72, 184.58 197.76 M190.3 173.42 C188.05 183, 185.8 192.58, 184.58 197.76" stroke="#1e1e1e" stroke-width="2" fill="none"></path></g></g><mask id="mask-ypOzMwPqrUKtdZ1PdS0Ud"><rect x="0" y="0" fill="#fff" width="973.2017174252944" height="598.6120602649096"></rect><rect x="773.6060671982267" y="358.9572612996813" fill="#000" width="133.93983459472656" height="25" opacity="1"></rect></mask><g transform="translate(773.6060671982267 358.95726129968136) rotate(0 7.30466475000668 40.7758106601336)"><text x="66.96991729736328" y="17.619999999999997" font-family="Excalifont, Xiaolai, sans-serif, Segoe UI Emoji" font-size="20px" fill="#1e1e1e" text-anchor="middle" style="white-space: pre;" direction="ltr" dominant-baseline="alphabetic">/participation</text></g><g mask="url(#mask-d5owebdyw5MI8V5k3tXeh)" stroke-linecap="round"><g transform="translate(676.890935604253 300.85408365472017) rotate(0 1.9226081779677884 97.36347710588069)"><path d="M0 0 C1.46 73.74, 2.91 147.47, 3.85 194.73 M0 0 C1.46 74.12, 2.93 148.23, 3.85 194.73" stroke="#1e1e1e" stroke-width="2" fill="none"></path></g><g transform="translate(676.890935604253 300.85408365472017) rotate(0 1.9226081779677884 97.36347710588069)"><path d="M-5.17 171.41 C-1.75 180.24, 1.66 189.07, 3.85 194.73 M-5.17 171.41 C-1.74 180.28, 1.69 189.16, 3.85 194.73" stroke="#1e1e1e" stroke-width="2" fill="none"></path></g><g transform="translate(676.890935604253 300.85408365472017) rotate(0 1.9226081779677884 97.36347710588069)"><path d="M11.93 171.07 C8.87 180.03, 5.81 188.99, 3.85 194.73 M11.93 171.07 C8.85 180.07, 5.78 189.08, 3.85 194.73" stroke="#1e1e1e" stroke-width="2" fill="none"></path></g></g><mask id="mask-d5owebdyw5MI8V5k3tXeh"><rect x="0" y="0" fill="#fff" width="780.7361519601885" height="595.5810378664816"></rect><rect x="633.8435959672793" y="385.7175607606008" fill="#000" width="89.93989562988281" height="25" opacity="1"></rect></mask><g transform="translate(633.8435959672794 385.7175607606008) rotate(0 44.96994781494146 12.500000000000057)"><text x="44.969947814941406" y="17.619999999999997" font-family="Excalifont, Xiaolai, sans-serif, Segoe UI Emoji" font-size="20px" fill="#1e1e1e" text-anchor="middle" style="white-space: pre;" direction="ltr" dominant-baseline="alphabetic">/finannce</text></g><g mask="url(#mask-eG190Zemc9AXwPchAZqjJ)" stroke-linecap="round"><g transform="translate(671.3808958559183 300.85408365472017) rotate(0 -84.65516614616712 98.65084054493761)"><path d="M0 0 C-23.98 12.32, -115.64 41.04, -143.86 73.92 C-172.08 106.81, -165.07 176.74, -169.31 197.3 M0 0 C-23.98 12.32, -115.64 41.04, -143.86 73.92 C-172.08 106.81, -165.07 176.74, -169.31 197.3" stroke="#1e1e1e" stroke-width="2" fill="none"></path></g><g transform="translate(671.3808958559183 300.85408365472017) rotate(0 -84.65516614616712 98.65084054493761)"><path d="M-176.22 173.28 C-174.11 180.64, -171.99 188, -169.31 197.3 M-176.22 173.28 C-174.63 178.82, -173.03 184.37, -169.31 197.3" stroke="#1e1e1e" stroke-width="2" fill="none"></path></g><g transform="translate(671.3808958559183 300.85408365472017) rotate(0 -84.65516614616712 98.65084054493761)"><path d="M-159.16 174.45 C-162.27 181.45, -165.38 188.45, -169.31 197.3 M-159.16 174.45 C-161.51 179.73, -163.85 185, -169.31 197.3" stroke="#1e1e1e" stroke-width="2" fill="none"></path></g></g><mask id="mask-eG190Zemc9AXwPchAZqjJ"><rect x="0" y="0" fill="#fff" width="940.6912281482525" height="598.1557647445954"></rect><rect x="496.0801524501145" y="362.2758747387382" fill="#000" width="62.87992858886719" height="25" opacity="1"></rect></mask><g transform="translate(496.0801524501146 362.27587473873825) rotate(0 90.6455772596367 37.22904946091958)"><text x="31.439964294433594" y="17.619999999999997" font-family="Excalifont, Xiaolai, sans-serif, Segoe UI Emoji" font-size="20px" fill="#1e1e1e" text-anchor="middle" style="white-space: pre;" direction="ltr" dominant-baseline="alphabetic">/users</text></g><g stroke-linecap="round" transform="translate(1105.6402221167425 339.32714362663876) rotate(0 59.29245308615623 58.15221360373013)"><path d="M-0.74 1.94 L120.48 1.84 L119.98 114.71 L0.91 118.21" stroke="none" stroke-width="0" fill="#eeeeee"></path><path d="M0 0 C32.39 1.47, 61.54 1.41, 118.58 0 M0 0 C37.7 -0.54, 76.79 -0.42, 118.58 0 M118.58 0 C121.08 41.57, 121.27 84.12, 118.58 116.3 M118.58 0 C118.43 25.99, 117.57 53.07, 118.58 116.3 M118.58 116.3 C94.43 114.69, 70.29 116.74, 0 116.3 M118.58 116.3 C90.88 115.23, 61.74 115.1, 0 116.3 M0 116.3 C2.96 76.37, 1.84 37.75, 0 0 M0 116.3 C0.2 72.46, 0.38 27.6, 0 0" stroke="#000000" stroke-width="1" fill="none"></path></g><g stroke-linecap="round" transform="translate(1152.7721757357156 347.799108701724) rotate(0 12.619386239527103 12.619386239527103)"><path d="M13.82 0.54 C16.38 0.67, 20.24 2.12, 22.19 3.95 C24.13 5.79, 25.34 8.85, 25.47 11.56 C25.59 14.27, 24.63 18.01, 22.94 20.22 C21.25 22.43, 17.92 24.16, 15.33 24.82 C12.75 25.47, 9.79 25.36, 7.41 24.17 C5.03 22.98, 2.19 20.17, 1.03 17.69 C-0.12 15.21, -0.31 11.8, 0.46 9.28 C1.22 6.75, 3.28 4.07, 5.62 2.54 C7.97 1, 13.08 0.35, 14.53 0.07 C15.98 -0.21, 14.4 0.63, 14.31 0.84 M10.36 0.38 C12.94 -0.36, 16.62 -0.01, 18.9 1.27 C21.19 2.54, 23.23 5.49, 24.08 8.03 C24.93 10.57, 24.88 13.96, 23.99 16.49 C23.1 19.02, 20.84 21.86, 18.72 23.21 C16.6 24.56, 13.81 24.99, 11.29 24.59 C8.78 24.19, 5.5 22.68, 3.64 20.81 C1.78 18.95, 0.22 15.99, 0.14 13.39 C0.06 10.8, 1.48 7.37, 3.17 5.23 C4.86 3.09, 9.22 1.42, 10.3 0.54 C11.37 -0.35, 9.55 -0.25, 9.63 -0.09" stroke="none" stroke-width="0" fill="#868e96"></path><path d="M15.17 -0.31 C17.75 -0.15, 20.76 1.97, 22.49 4.16 C24.22 6.35, 25.5 10.06, 25.56 12.82 C25.62 15.58, 24.55 18.69, 22.83 20.71 C21.11 22.74, 17.92 24.47, 15.25 24.96 C12.57 25.46, 9.25 25.1, 6.78 23.71 C4.31 22.32, 1.48 19.12, 0.43 16.63 C-0.62 14.14, -0.43 11.26, 0.5 8.77 C1.42 6.28, 3.57 3.19, 5.99 1.69 C8.41 0.18, 13.46 0, 15.02 -0.27 C16.58 -0.55, 15.41 -0.22, 15.35 0.04 M12.02 -0.48 C14.59 -0.74, 18.73 0.67, 20.94 2.34 C23.14 4, 24.71 6.93, 25.25 9.49 C25.79 12.05, 25.48 15.14, 24.17 17.72 C22.86 20.3, 19.95 23.77, 17.4 24.98 C14.84 26.19, 11.34 25.82, 8.84 25 C6.33 24.18, 3.95 22.43, 2.37 20.06 C0.78 17.69, -0.81 13.55, -0.65 10.79 C-0.5 8.02, 1.29 5.36, 3.3 3.46 C5.31 1.57, 9.99 -0.18, 11.39 -0.59 C12.79 -1, 11.48 0.57, 11.71 1" stroke="#495057" stroke-width="1" fill="none"></path></g><g stroke-linecap="round" transform="translate(1156.9021566868357 351.69964626666706) rotate(0 8.60412698149571 8.604126981495739)"><path d="M9.19 0.02 C11.02 -0.18, 13.17 0.6, 14.52 1.83 C15.87 3.05, 17.09 5.51, 17.29 7.37 C17.49 9.23, 16.66 11.38, 15.74 12.98 C14.83 14.59, 13.52 16.39, 11.81 17.01 C10.1 17.63, 7.29 17.34, 5.49 16.68 C3.68 16.01, 1.89 14.55, 1 13 C0.11 11.45, -0.27 9.24, 0.13 7.38 C0.52 5.52, 1.89 3, 3.39 1.85 C4.88 0.7, 8.03 0.73, 9.09 0.46 C10.16 0.19, 9.82 0.22, 9.79 0.25 M9.49 -0.3 C11.17 -0.3, 13.16 1.11, 14.35 2.42 C15.54 3.73, 16.47 5.77, 16.62 7.58 C16.78 9.39, 16.14 11.82, 15.28 13.29 C14.43 14.76, 13.14 15.92, 11.52 16.43 C9.89 16.93, 7.3 16.94, 5.54 16.34 C3.77 15.74, 1.77 14.4, 0.95 12.83 C0.13 11.27, 0.17 8.79, 0.63 6.96 C1.09 5.13, 2.37 3.12, 3.72 1.87 C5.06 0.62, 7.7 -0.26, 8.69 -0.53 C9.68 -0.8, 9.58 -0.01, 9.64 0.26" stroke="none" stroke-width="0" fill="#ffffff"></path><path d="M10.37 -0.14 C12.09 0.18, 14.3 1.91, 15.52 3.38 C16.74 4.84, 17.69 6.88, 17.69 8.66 C17.69 10.45, 16.74 12.65, 15.53 14.07 C14.33 15.5, 12.42 16.93, 10.48 17.19 C8.55 17.46, 5.63 16.54, 3.93 15.66 C2.23 14.78, 0.89 13.59, 0.28 11.92 C-0.32 10.24, -0.4 7.48, 0.29 5.6 C0.97 3.73, 2.63 1.63, 4.38 0.66 C6.13 -0.31, 9.7 -0.19, 10.79 -0.24 C11.88 -0.28, 11.02 0.11, 10.94 0.39 M8.06 -0.12 C9.83 -0.45, 11.95 0.08, 13.45 0.97 C14.95 1.87, 16.58 3.33, 17.08 5.25 C17.58 7.17, 17.21 10.64, 16.46 12.51 C15.72 14.39, 14.16 15.64, 12.62 16.49 C11.07 17.34, 9.13 18.09, 7.21 17.62 C5.29 17.14, 2.43 15.2, 1.11 13.67 C-0.21 12.14, -0.8 10.34, -0.72 8.44 C-0.64 6.55, 0.29 3.56, 1.59 2.28 C2.89 1.01, 5.99 1.04, 7.07 0.82 C8.16 0.6, 7.93 1.03, 8.09 0.95" stroke="#495057" stroke-width="1" fill="none"></path></g><g stroke-linecap="round" transform="translate(1146.8066476952147 365.4662494370608) rotate(0 18.126027507684398 16.175758725212006)"><path d="M8.09 0 C14.01 -2.48, 19.58 -1.62, 28.16 0 C32.38 3.27, 33.9 5.41, 36.25 8.09 C37.61 15.05, 36.51 18.74, 36.25 24.26 C33.09 26.95, 35.03 32.61, 28.16 32.35 C22.51 34.55, 15.42 33.95, 8.09 32.35 C1.1 33.3, 2.02 26.48, 0 24.26 C2.25 15.25, -1.6 11.79, 0 8.09 C1.24 1.9, -0.65 -0.71, 8.09 0" stroke="none" stroke-width="0" fill="#868e96"></path><path d="M8.09 0 C17.25 -2.09, 23.87 -1.24, 28.16 0 M8.09 0 C15.51 0.49, 22.59 0.59, 28.16 0 M28.16 0 C34.01 -1.45, 34.68 1.76, 36.25 8.09 M28.16 0 C35.29 -1.08, 36.01 3.03, 36.25 8.09 M36.25 8.09 C36.15 10.94, 35.99 15.87, 36.25 24.26 M36.25 8.09 C37.03 11.76, 36.62 15.57, 36.25 24.26 M36.25 24.26 C37.08 27.94, 33.19 34.32, 28.16 32.35 M36.25 24.26 C36.02 30.63, 34.6 34.14, 28.16 32.35 M28.16 32.35 C24.37 30.6, 18.52 31.42, 8.09 32.35 M28.16 32.35 C20.89 31.74, 12.68 33.49, 8.09 32.35 M8.09 32.35 C2.86 31.4, 1.84 31.28, 0 24.26 M8.09 32.35 C2.77 33.5, -1.38 30.5, 0 24.26 M0 24.26 C1.46 19.98, 0.04 14.17, 0 8.09 M0 24.26 C0.64 19.91, -0.16 14.5, 0 8.09 M0 8.09 C1.69 1.94, 2.55 -1.51, 8.09 0 M0 8.09 C-1.21 3.5, 3.05 0.48, 8.09 0" stroke="#495057" stroke-width="1" fill="none"></path></g><g stroke-linecap="round" transform="translate(1152.5427323495453 357.8946176933457) rotate(0 2.179712168645551 5.047754495810835)"><path d="M1.09 0 C1.65 0, 2.2 0, 3.27 0 C4 0, 4.36 0.36, 4.36 1.09 C4.36 4.08, 4.36 7.08, 4.36 9.01 C4.36 9.73, 4 10.1, 3.27 10.1 C2.41 10.1, 1.54 10.1, 1.09 10.1 C0.36 10.1, 0 9.73, 0 9.01 C0 6.67, 0 4.33, 0 1.09 C0 0.36, 0.36 0, 1.09 0" stroke="none" stroke-width="0" fill="#868e96"></path><path d="M1.09 0 C1.9 0, 2.7 0, 3.27 0 M1.09 0 C1.95 0, 2.82 0, 3.27 0 M3.27 0 C4 0, 4.36 0.36, 4.36 1.09 M3.27 0 C4 0, 4.36 0.36, 4.36 1.09 M4.36 1.09 C4.36 2.72, 4.36 4.36, 4.36 9.01 M4.36 1.09 C4.36 2.94, 4.36 4.78, 4.36 9.01 M4.36 9.01 C4.36 9.73, 4 10.1, 3.27 10.1 M4.36 9.01 C4.36 9.73, 4 10.1, 3.27 10.1 M3.27 10.1 C2.83 10.1, 2.38 10.1, 1.09 10.1 M3.27 10.1 C2.42 10.1, 1.56 10.1, 1.09 10.1 M1.09 10.1 C0.36 10.1, 0 9.73, 0 9.01 M1.09 10.1 C0.36 10.1, 0 9.73, 0 9.01 M0 9.01 C0 6.75, 0 4.5, 0 1.09 M0 9.01 C0 6.69, 0 4.37, 0 1.09 M0 1.09 C0 0.36, 0.36 0, 1.09 0 M0 1.09 C0 0.36, 0.36 0, 1.09 0" stroke="#868e96" stroke-width="1" fill="none"></path></g><g stroke-linecap="round" transform="translate(1173.8809672636562 357.8946176933457) rotate(0 2.179712168645551 5.965528040503699)"><path d="M1.09 0 C1.58 0, 2.08 0, 3.27 0 C4 0, 4.36 0.36, 4.36 1.09 C4.36 4.77, 4.36 8.44, 4.36 10.84 C4.36 11.57, 4 11.93, 3.27 11.93 C2.5 11.93, 1.74 11.93, 1.09 11.93 C0.36 11.93, 0 11.57, 0 10.84 C0 8.86, 0 6.88, 0 1.09 C0 0.36, 0.36 0, 1.09 0" stroke="none" stroke-width="0" fill="#868e96"></path><path d="M1.09 0 C1.53 0, 1.97 0, 3.27 0 M1.09 0 C1.89 0, 2.7 0, 3.27 0 M3.27 0 C4 0, 4.36 0.36, 4.36 1.09 M3.27 0 C4 0, 4.36 0.36, 4.36 1.09 M4.36 1.09 C4.36 3.77, 4.36 6.45, 4.36 10.84 M4.36 1.09 C4.36 3.74, 4.36 6.38, 4.36 10.84 M4.36 10.84 C4.36 11.57, 4 11.93, 3.27 11.93 M4.36 10.84 C4.36 11.57, 4 11.93, 3.27 11.93 M3.27 11.93 C2.79 11.93, 2.3 11.93, 1.09 11.93 M3.27 11.93 C2.79 11.93, 2.31 11.93, 1.09 11.93 M1.09 11.93 C0.36 11.93, 0 11.57, 0 10.84 M1.09 11.93 C0.36 11.93, 0 11.57, 0 10.84 M0 10.84 C0 7.41, 0 3.97, 0 1.09 M0 10.84 C0 7.57, 0 4.3, 0 1.09 M0 1.09 C0 0.36, 0.36 0, 1.09 0 M0 1.09 C0 0.36, 0.36 0, 1.09 0" stroke="#868e96" stroke-width="1" fill="none"></path></g><g stroke-linecap="round" transform="translate(1168.2596043024078 358.98447377766786) rotate(0 2.638598940991983 3.0401248667951677)"><path d="M0 0 L5.28 0 L5.28 6.08 L0 6.08" stroke="none" stroke-width="0" fill="#ffffff"></path><path d="M0 0 C1.29 0, 2.59 0, 5.28 0 M0 0 C1.99 0, 3.99 0, 5.28 0 M5.28 0 C5.28 1.76, 5.28 3.52, 5.28 6.08 M5.28 0 C5.28 1.7, 5.28 3.4, 5.28 6.08 M5.28 6.08 C3.46 6.08, 1.64 6.08, 0 6.08 M5.28 6.08 C3.47 6.08, 1.66 6.08, 0 6.08 M0 6.08 C0 4.73, 0 3.38, 0 0 M0 6.08 C0 4.74, 0 3.4, 0 0" stroke="#ffffff" stroke-width="1" fill="none"></path></g><g stroke-linecap="round" transform="translate(1157.2463217660961 359.0991954707555) rotate(0 0.9177735446928637 3.0401248667951677)"><path d="M0 0 L1.84 0 L1.84 6.08 L0 6.08" stroke="none" stroke-width="0" fill="#ffffff"></path><path d="M0 0 C0.66 0, 1.32 0, 1.84 0 M0 0 C0.42 0, 0.84 0, 1.84 0 M1.84 0 C1.84 1.23, 1.84 2.46, 1.84 6.08 M1.84 0 C1.84 1.47, 1.84 2.94, 1.84 6.08 M1.84 6.08 C1.21 6.08, 0.58 6.08, 0 6.08 M1.84 6.08 C1.14 6.08, 0.45 6.08, 0 6.08 M0 6.08 C0 4.48, 0 2.88, 0 0 M0 6.08 C0 3.68, 0 1.27, 0 0" stroke="#ffffff" stroke-width="1" fill="none"></path></g><g stroke-linecap="round"><g transform="translate(1178.116284505914 366.08173142413455) rotate(0 -0.010461771021709865 -3.6710941787715115)"><path d="M0 0 C0.17 -2.23, -0.19 -4.76, 0 -7.34 M0 0 C-0.03 -1.84, -0.14 -3.67, 0 -7.34" stroke="#000000" stroke-width="1" fill="none"></path></g></g><mask></mask><g stroke-linecap="round"><g transform="translate(1152.399188658989 365.7354379610887) rotate(0 -0.06240939950328084 -3.6710941787715115)"><path d="M0 0 C-0.2 -2.3, -0.13 -4.03, 0 -7.34 M0 0 C-0.12 -1.81, -0.11 -3.73, 0 -7.34" stroke="#000000" stroke-width="1" fill="none"></path></g></g><mask></mask><g stroke-linecap="round"><g transform="translate(1173.6311655515135 365.4329850566688) rotate(0 -0.03405366199626769 -3.4416507925982955)"><path d="M0 0 C-0.09 -2.05, -0.09 -4.47, 0 -6.88 M0 0 C-0.08 -2.18, -0.01 -4.35, 0 -6.88" stroke="#000000" stroke-width="1" fill="none"></path></g></g><mask></mask><g stroke-linecap="round"><g transform="translate(1157.2002192605667 365.4083512732882) rotate(0 0.006143286349356458 -3.4416507925982955)"><path d="M0 0 C-0.1 -1.55, 0.04 -3.27, 0 -6.88 M0 0 C-0.01 -2.38, 0.11 -4.78, 0 -6.88" stroke="#000000" stroke-width="1" fill="none"></path></g></g><mask></mask><g stroke-linecap="round" transform="translate(1154.4807966965836 379.3739297016192) rotate(0 10.656913021619971 8.2184668217578)"><path d="M10.21 -0.04 C12.36 -0.3, 15.08 0.41, 16.93 1.53 C18.77 2.65, 20.74 4.88, 21.28 6.67 C21.81 8.45, 21.28 10.75, 20.12 12.24 C18.96 13.74, 16.48 15.08, 14.33 15.65 C12.17 16.21, 9.35 16.21, 7.19 15.64 C5.04 15.08, 2.59 13.62, 1.38 12.25 C0.18 10.89, -0.36 9.08, -0.04 7.45 C0.27 5.81, 1.44 3.66, 3.28 2.43 C5.13 1.21, 9.55 0.43, 11.02 0.1 C12.49 -0.23, 12.03 0.3, 12.1 0.43 M12.07 0.1 C14.32 0.29, 16.44 1.43, 18.1 2.68 C19.75 3.93, 21.74 5.93, 22 7.59 C22.27 9.25, 21.09 11.27, 19.67 12.65 C18.25 14.03, 15.75 15.3, 13.5 15.86 C11.26 16.42, 8.4 16.64, 6.19 16.03 C3.98 15.42, 1.34 13.87, 0.26 12.19 C-0.82 10.51, -1.13 7.84, -0.3 5.92 C0.52 4.01, 3.27 1.67, 5.2 0.68 C7.13 -0.3, 10.15 0.13, 11.28 0.03 C12.41 -0.08, 12.05 -0.07, 12 0.04" stroke="none" stroke-width="0" fill="#ced4da"></path><path d="M8.02 0.12 C10.03 -0.25, 13.2 0.42, 15.22 1.21 C17.23 2.01, 19.2 3.27, 20.1 4.9 C20.99 6.52, 21.17 9.22, 20.57 10.95 C19.97 12.68, 18.35 14.31, 16.48 15.25 C14.61 16.19, 11.67 16.84, 9.35 16.6 C7.03 16.37, 4.04 15.15, 2.57 13.84 C1.1 12.53, 0.57 10.45, 0.52 8.75 C0.46 7.05, 0.85 5.13, 2.24 3.62 C3.64 2.11, 7.79 0.31, 8.88 -0.33 C9.97 -0.97, 8.79 -0.36, 8.77 -0.21 M9.24 0.85 C11.47 0.2, 14.31 -0.45, 16.26 0.4 C18.21 1.24, 20.15 4.24, 20.91 5.92 C21.67 7.6, 21.49 8.82, 20.83 10.47 C20.16 12.12, 18.87 14.79, 16.92 15.83 C14.97 16.88, 11.56 17.04, 9.11 16.72 C6.66 16.41, 3.72 15.38, 2.23 13.94 C0.73 12.51, 0.14 9.8, 0.13 8.1 C0.13 6.4, 0.73 5.07, 2.2 3.75 C3.66 2.42, 7.85 0.74, 8.92 0.15 C9.99 -0.43, 8.61 0.1, 8.64 0.23" stroke="#000000" stroke-width="1" fill="none"></path></g><g stroke-linecap="round" transform="translate(1161.3194207788968 370.55756913277844) rotate(0 3.806856936493773 3.806856936493716)"><path d="M4.09 -0.14 C4.9 -0.07, 6.16 0.67, 6.75 1.31 C7.35 1.96, 7.7 2.96, 7.68 3.74 C7.66 4.52, 7.18 5.41, 6.66 6.01 C6.14 6.6, 5.34 7.12, 4.55 7.29 C3.76 7.45, 2.63 7.29, 1.9 7 C1.17 6.71, 0.49 6.22, 0.17 5.53 C-0.15 4.85, -0.3 3.69, -0.03 2.88 C0.24 2.06, 0.98 1.09, 1.77 0.64 C2.55 0.19, 4.17 0.28, 4.66 0.19 C5.14 0.11, 4.72 0.16, 4.69 0.15 M3.18 0.15 C3.99 -0.01, 5.6 0.2, 6.35 0.58 C7.1 0.96, 7.51 1.67, 7.7 2.42 C7.89 3.17, 7.83 4.22, 7.49 5.06 C7.15 5.9, 6.5 7, 5.68 7.47 C4.85 7.95, 3.42 8.17, 2.52 7.94 C1.62 7.7, 0.66 6.88, 0.3 6.08 C-0.07 5.28, 0.28 3.95, 0.34 3.13 C0.41 2.32, 0.17 1.74, 0.69 1.21 C1.22 0.67, 3.14 0.12, 3.5 -0.08 C3.87 -0.28, 2.87 -0.08, 2.88 0.01" stroke="none" stroke-width="0" fill="#ced4da"></path><path d="M3.15 0.3 C3.88 0.15, 4.9 0.13, 5.58 0.56 C6.25 0.99, 6.9 2.09, 7.19 2.89 C7.47 3.68, 7.54 4.59, 7.26 5.32 C6.98 6.06, 6.26 6.92, 5.51 7.28 C4.77 7.64, 3.51 7.67, 2.79 7.48 C2.07 7.3, 1.61 6.76, 1.17 6.17 C0.73 5.57, 0.14 4.75, 0.14 3.89 C0.15 3.02, 0.7 1.67, 1.2 0.97 C1.7 0.28, 2.78 -0.1, 3.15 -0.28 C3.51 -0.47, 3.39 -0.25, 3.37 -0.15 M4.77 -0.35 C5.5 -0.27, 6.44 1.15, 6.92 1.8 C7.4 2.44, 7.61 2.72, 7.65 3.52 C7.7 4.32, 7.74 5.91, 7.22 6.62 C6.69 7.33, 5.46 7.68, 4.53 7.8 C3.6 7.91, 2.35 7.79, 1.65 7.31 C0.95 6.83, 0.58 5.66, 0.33 4.93 C0.08 4.21, -0.16 3.71, 0.14 2.98 C0.43 2.24, 1.4 1.03, 2.12 0.53 C2.84 0.03, 4.05 0.06, 4.47 -0.02 C4.89 -0.09, 4.6 -0.02, 4.66 0.09" stroke="#495057" stroke-width="1" fill="none"></path></g><g stroke-linecap="round" transform="translate(1152.3132889633714 386.05707854568595) rotate(0 12.73410793261371 5.238143688592885)"><path d="M0 0 L25.47 0 L25.47 10.48 L0 10.48" stroke="none" stroke-width="0" fill="#868e96"></path><path d="M0 0 C5.14 0, 10.28 0, 25.47 0 M0 0 C6.15 0, 12.3 0, 25.47 0 M25.47 0 C25.47 3.58, 25.47 7.16, 25.47 10.48 M25.47 0 C25.47 3.96, 25.47 7.92, 25.47 10.48 M25.47 10.48 C18.77 10.48, 12.07 10.48, 0 10.48 M25.47 10.48 C15.4 10.48, 5.34 10.48, 0 10.48 M0 10.48 C0 7.96, 0 5.45, 0 0 M0 10.48 C0 7.35, 0 4.23, 0 0" stroke="#868e96" stroke-width="1" fill="none"></path></g><g stroke-linecap="round"><g transform="translate(1154.737168341412 387.52254530728203) rotate(0 10.69208746700815 0.0857068255037916)"><path d="M0 0 C4.21 0.8, 8.25 0.09, 21.38 0.03 M0 0 C5.21 -0.17, 10.19 -0.38, 21.38 0.03" stroke="#000000" stroke-width="1" fill="none"></path></g></g><mask></mask><g transform="translate(1122.6133096887936 393.7118817164295) rotate(0 42.31936551410513 31.93914378423034)"><text x="42.31936551410518" y="22.103978589318967" font-family="Virgil, sans-serif, Segoe UI Emoji" font-size="23.962526160952343px" fill="#000000" text-anchor="middle" style="white-space: pre;" direction="ltr" dominant-baseline="alphabetic">Auth &amp;</text><text x="42.31936551410518" y="54.043122373549295" font-family="Virgil, sans-serif, Segoe UI Emoji" font-size="23.962526160952343px" fill="#000000" text-anchor="middle" style="white-space: pre;" direction="ltr" dominant-baseline="alphabetic"> IAM</text></g><g mask="url(#mask-Z2DM0r4EwO11NS78if0zY)" stroke-linecap="round"><g transform="translate(496.55869739645755 611.4825005926273) rotate(0 334.13698890322064 15.65546075834959)"><path d="M0 0 C0 34.52, 0 69.04, 0 163.7 M0 0 C0 44.95, 0 89.9, 0 163.7 M0 163.7 C0 174.37, 5.33 179.7, 16 179.7 M0 163.7 C0 174.37, 5.33 179.7, 16 179.7 M16 179.7 C213.18 179.7, 410.36 179.7, 652.27 179.7 M16 179.7 C143.34 179.7, 270.67 179.7, 652.27 179.7 M652.27 179.7 C662.94 179.7, 668.27 174.37, 668.27 163.7 M652.27 179.7 C662.94 179.7, 668.27 174.37, 668.27 163.7 M668.27 163.7 C668.27 76.99, 668.27 -9.72, 668.27 -148.39 M668.27 163.7 C668.27 97.68, 668.27 31.66, 668.27 -148.39" stroke="#1e1e1e" stroke-width="2" fill="none"></path></g><g transform="translate(496.55869739645755 611.4825005926273) rotate(0 334.13698890322064 15.65546075834959)"><path d="M676.82 -124.9 C675.02 -129.85, 673.22 -134.81, 668.27 -148.39 M676.82 -124.9 C674.48 -131.35, 672.13 -137.8, 668.27 -148.39" stroke="#1e1e1e" stroke-width="2" fill="none"></path></g><g transform="translate(496.55869739645755 611.4825005926273) rotate(0 334.13698890322064 15.65546075834959)"><path d="M659.72 -124.9 C661.53 -129.85, 663.33 -134.81, 668.27 -148.39 M659.72 -124.9 C662.07 -131.35, 664.42 -137.8, 668.27 -148.39" stroke="#1e1e1e" stroke-width="2" fill="none"></path></g></g><mask id="mask-Z2DM0r4EwO11NS78if0zY"><rect x="0" y="0" fill="#fff" width="1264.8326752028988" height="1039.5780847248006"></rect><rect x="792.9757308553424" y="778.6857534170637" fill="#000" width="75.43991088867188" height="25" opacity="1"></rect></mask><g transform="translate(792.9757308553424 778.6857534170637) rotate(0 37.719955444335824 -151.54779206608669)"><text x="37.71995544433594" y="17.619999999999997" font-family="Excalifont, Xiaolai, sans-serif, Segoe UI Emoji" font-size="20px" fill="#1e1e1e" text-anchor="middle" style="white-space: pre;" direction="ltr" dominant-baseline="alphabetic">registra</text></g><g mask="url(#mask-Hby84Mk9mSzRbC-D8iPmh)" stroke-linecap="round"><g transform="translate(874.9842897321173 277.5117324562091) rotate(0 112.5779661923126 59.93381238707988)"><path d="M0 0 C52.59 28, 105.19 56, 225.16 119.87 M0 0 C49.52 26.36, 99.04 52.73, 225.16 119.87" stroke="#1e1e1e" stroke-width="2" fill="none"></path></g><g transform="translate(874.9842897321173 277.5117324562091) rotate(0 112.5779661923126 59.93381238707988)"><path d="M200.4 116.38 C206.18 117.19, 211.97 118.01, 225.16 119.87 M200.4 116.38 C205.85 117.14, 211.29 117.91, 225.16 119.87" stroke="#1e1e1e" stroke-width="2" fill="none"></path></g><g transform="translate(874.9842897321173 277.5117324562091) rotate(0 112.5779661923126 59.93381238707988)"><path d="M208.44 101.28 C212.34 105.62, 216.25 109.96, 225.16 119.87 M208.44 101.28 C212.11 105.37, 215.79 109.46, 225.16 119.87" stroke="#1e1e1e" stroke-width="2" fill="none"></path></g></g><mask id="mask-Hby84Mk9mSzRbC-D8iPmh"><rect x="0" y="0" fill="#fff" width="1200.1402221167425" height="497.37935723036884"></rect><rect x="956.3522873575355" y="312.4455448432889" fill="#000" width="62.41993713378906" height="50" opacity="1"></rect></mask><g transform="translate(956.3522873575353 312.445544843289) rotate(0 31.209968566894418 25.00000000000003)"><text x="31.20996856689453" y="17.619999999999997" font-family="Excalifont, Xiaolai, sans-serif, Segoe UI Emoji" font-size="20px" fill="#1e1e1e" text-anchor="middle" style="white-space: pre;" direction="ltr" dominant-baseline="alphabetic">valida </text><text x="31.20996856689453" y="42.62" font-family="Excalifont, Xiaolai, sans-serif, Segoe UI Emoji" font-size="20px" fill="#1e1e1e" text-anchor="middle" style="white-space: pre;" direction="ltr" dominant-baseline="alphabetic">token</text></g><g stroke-linecap="round"><g transform="translate(505.39204688357916 611.4825005926273) rotate(0 56.8256874749062 35.829907672819274)"><path d="M0 0 C18.94 11.94, 94.71 59.72, 113.65 71.66 M0 0 C18.94 11.94, 94.71 59.72, 113.65 71.66" stroke="#1e1e1e" stroke-width="2" fill="none"></path></g><g transform="translate(505.39204688357916 611.4825005926273) rotate(0 56.8256874749062 35.829907672819274)"><path d="M24.43 5.3 C18.49 4.01, 12.54 2.72, 0 0 M24.43 5.3 C14.88 3.23, 5.32 1.15, 0 0" stroke="#1e1e1e" stroke-width="2" fill="none"></path></g><g transform="translate(505.39204688357916 611.4825005926273) rotate(0 56.8256874749062 35.829907672819274)"><path d="M15.31 19.76 C11.59 14.95, 7.86 10.14, 0 0 M15.31 19.76 C9.32 12.03, 3.33 4.3, 0 0" stroke="#1e1e1e" stroke-width="2" fill="none"></path></g><g transform="translate(505.39204688357916 611.4825005926273) rotate(0 56.8256874749062 35.829907672819274)"><path d="M89.22 66.36 C95.16 67.65, 101.11 68.94, 113.65 71.66 M89.22 66.36 C98.77 68.43, 108.33 70.51, 113.65 71.66" stroke="#1e1e1e" stroke-width="2" fill="none"></path></g><g transform="translate(505.39204688357916 611.4825005926273) rotate(0 56.8256874749062 35.829907672819274)"><path d="M98.34 51.9 C102.07 56.71, 105.79 61.52, 113.65 71.66 M98.34 51.9 C104.33 59.63, 110.32 67.36, 113.65 71.66" stroke="#1e1e1e" stroke-width="2" fill="none"></path></g></g><mask></mask><g transform="translate(1123.974466693167 310.1421637116698) rotate(0 40.77996063232422 12.5)"><text x="0" y="17.619999999999997" font-family="Excalifont, Xiaolai, sans-serif, Segoe UI Emoji" font-size="20px" fill="#1e1e1e" text-anchor="start" style="white-space: pre;" direction="ltr" dominant-baseline="alphabetic">Keycloak</text></g></svg>